<?xml version="1.0" encoding="UTF-8" standalone="no"?>
<!-- Created with Inkscape (http://www.inkscape.org/) -->

<svg
   xmlns:dc="http://purl.org/dc/elements/1.1/"
   xmlns:cc="http://creativecommons.org/ns#"
   xmlns:rdf="http://www.w3.org/1999/02/22-rdf-syntax-ns#"
   xmlns:svg="http://www.w3.org/2000/svg"
   xmlns="http://www.w3.org/2000/svg"
   xmlns:sodipodi="http://sodipodi.sourceforge.net/DTD/sodipodi-0.dtd"
   xmlns:inkscape="http://www.inkscape.org/namespaces/inkscape"
   id="svg3428"
   version="1.1"
   inkscape:version="0.91 r13725"
   width="1024"
   height="768"
   viewBox="0 0 1024 768"
   sodipodi:docname="apparent_inkscape.svg">
  <metadata
     id="metadata3434">
    <rdf:RDF>
      <cc:Work
         rdf:about="">
        <dc:format>image/svg+xml</dc:format>
        <dc:type
           rdf:resource="http://purl.org/dc/dcmitype/StillImage" />
        <dc:title></dc:title>
      </cc:Work>
    </rdf:RDF>
  </metadata>
  <defs
     id="defs3432" />
  <sodipodi:namedview
     pagecolor="#ffffff"
     bordercolor="#666666"
     borderopacity="1"
     objecttolerance="10"
     gridtolerance="10"
     guidetolerance="10"
     inkscape:pageopacity="0"
     inkscape:pageshadow="2"
     inkscape:window-width="2030"
     inkscape:window-height="998"
     id="namedview3430"
     showgrid="false"
     inkscape:zoom="1"
     inkscape:cx="512"
     inkscape:cy="384"
     inkscape:window-x="26"
     inkscape:window-y="52"
     inkscape:window-maximized="0"
     inkscape:current-layer="svg3428" />
  <g
     id="g3497"
     transform="translate(-18,17)">
    <path
       style="fill:#1fecfd"
       d="m 445,486.33531 c 0,-0.36558 1.82211,-3.98466 4.04913,-8.04241 l 4.04912,-7.37772 -3.19526,-5.70759 c -1.75739,-3.13917 -4.0662,-7.17009 -5.13068,-8.95759 l -1.93543,-3.25 3.57301,0 c 3.29804,0 3.81755,0.4333 6.75057,5.63033 l 3.17756,5.63032 2.84702,-5.63032 C 461.82352,453.41241 462.2872,453 465.51526,453 l 3.48321,0 -8.74924,16.97622 c -8.58825,16.66387 -8.80903,16.97665 -11.99923,17 -1.7875,0.0131 -3.25,-0.27533 -3.25,-0.64091 z M 255.57028,476.75 c -0.76855,-1.7875 -5.94432,-13.29246 -11.5017,-25.56657 -5.55738,-12.27411 -9.80176,-22.80614 -9.43195,-23.40451 0.36981,-0.59836 0.26393,-0.8355 -0.23529,-0.52696 -0.49922,0.30853 -12.57089,-24.93444 -26.82595,-56.0955 -14.25505,-31.16105 -27.65747,-60.22684 -29.78315,-64.59063 -2.12568,-4.3638 -3.62868,-8.54967 -3.34001,-9.30194 0.28867,-0.75227 0.15742,-1.14067 -0.29168,-0.86311 C 173.47993,296.82142 165,279.40434 165,277.58576 165,277.26359 201.225,277 245.5,277 c 44.275,0 80.5,0.38707 80.5,0.86015 0,0.47309 -1.79623,4.74809 -3.99162,9.5 L 318.01676,296 l -60.94377,0 -60.94377,0 4.01882,8.75 c 3.79543,8.26361 8.67211,18.6108 16.44357,34.88947 1.87461,3.92671 3.40839,7.41754 3.40839,7.75739 0,0.55424 4.77221,10.87331 14.38411,31.10314 1.82927,3.85 5.52065,11.95 8.20306,18 2.68242,6.05 5.11437,11.225 5.40435,11.5 0.28997,0.275 1.57288,3.2 2.85091,6.5 1.27803,3.3 3.35695,8.25 4.61983,11 1.26288,2.75 2.63615,6.125 3.05172,7.5 0.41557,1.375 1.06752,2.725 1.44877,3 0.86427,0.62339 8.03725,17.34263 8.03725,18.73371 0,0.56007 2.475,6.20539 5.5,12.54516 3.025,6.33977 5.5,11.79557 5.5,12.12399 C 279,479.73129 274.04272,480 267.98382,480 l -11.01618,0 -1.39736,-3.25 z m 18.45677,-24.5 c -6.81795,-15.2625 -13.92391,-30.9 -15.79102,-34.75 -1.86711,-3.85 -13.29944,-29.05 -25.40517,-56 -12.10573,-26.95 -23.35305,-51.3625 -24.99403,-54.25 l -2.98361,-5.25 10.90889,0 10.90888,0 9.73124,22.25 c 5.35219,12.2375 10.68247,24.5 11.84508,27.25 1.1626,2.75 6.57977,14.225 12.03814,25.5 5.45837,11.275 11.48398,24.325 13.39024,29 7.86183,19.28072 12.73955,29.97777 13.3426,29.26087 0.35201,-0.41848 3.48222,-7.06087 6.95601,-14.76087 10.80234,-23.94446 16.15868,-35.63485 21.07643,-46 2.60948,-5.5 5.6562,-12.025 6.77048,-14.5 6.75462,-15.00305 23.77705,-51.28739 34.95092,-74.5 7.14836,-14.85 13.701,-28.6875 14.56142,-30.75 l 1.5644,-3.75 8.87618,0 8.87618,0 15.82061,35.25 c 8.70133,19.3875 17.9828,40.0875 20.62548,46 l 4.80488,10.75 -10.30305,0 -10.30304,0 -5.26339,-12.02119 -5.26338,-12.02118 -19.04278,0.27118 L 362.68286,319.5 350.28969,346 c -6.81625,14.575 -15.93003,34.15 -20.25285,43.5 -4.32282,9.35 -10.29467,21.95 -13.27078,28 -2.97611,6.05 -10.7675,22.5875 -17.31418,36.75 -6.54669,14.1625 -12.15631,25.75 -12.46581,25.75 -0.30951,0 -6.14107,-12.4875 -12.95902,-27.75 z m 117.59881,-154.5 c -6.42205,-14.89788 -8.79682,-20.25429 -9.12542,-20.5829 -0.34979,-0.34979 -2.59981,4.24685 -9.09619,18.5829 l -2.37903,5.25 11.00081,0 11.00081,0 -1.40098,-3.25 z M 338.66497,460.02182 C 334.44924,449.61701 331,440.85559 331,440.55199 c 0,-0.30359 1.4625,-0.54913 3.25,-0.54564 3.20606,0.006 3.30898,0.15572 7.61238,11.05429 2.3993,6.07637 4.57424,10.83607 4.83319,10.57712 0.25895,-0.25894 2.38526,-5.12088 4.72514,-10.80429 4.03803,-9.80812 4.4151,-10.3494 7.4168,-10.64683 1.73937,-0.17235 3.16249,0.0866 3.16249,0.57536 0,0.48879 -3.52576,9.27873 -7.83503,19.53319 l -7.83503,18.64447 -7.66497,-18.91784 z M 365,464.5 l 0,-11.5 3,0 3,0 0,11.5 0,11.5 -3,0 -3,0 0,-11.5 z m 12.27613,8.86704 c -2.52945,-2.52945 -2.55946,-2.6867 -0.76341,-4 2.1253,-1.55406 4.48728,-1.80357 4.48728,-0.47403 0,1.56786 2.8132,2.037 3.95621,0.65975 0.86044,-1.03676 0.13557,-1.89497 -3.30217,-3.90962 -2.42253,-1.41969 -4.66713,-3.5852 -4.98801,-4.81224 -1.48595,-5.6823 5.00421,-10.64894 10.14497,-7.76351 3.56079,1.99862 3.85412,4.30853 0.72799,5.73289 C 386.00487,459.49927 385,459.56983 385,458.97856 385,458.44035 384.29844,458 383.44098,458 c -2.36928,0 -0.75652,1.79837 3.61087,4.02645 4.62832,2.36119 5.77065,5.48234 3.56651,9.74466 -2.6452,5.11526 -9.05606,5.88209 -13.34223,1.59593 z m 18.43645,2.0122 C 395.32066,474.98733 395,469.79167 395,463.83333 L 395,453 l 3.53275,0 3.53275,0 -0.28275,11.25 c -0.28186,11.21445 -0.29077,11.25094 -2.82017,11.54591 -1.39559,0.16275 -2.85809,-0.0247 -3.25,-0.41667 z M 407,456 l 0,-20 3,0 3,0 0,8.97525 0,8.97525 2.73959,-1.04159 c 3.82039,-1.45251 8.50304,-0.344 11.35048,2.68696 1.99391,2.12243 2.40993,3.60127 2.40993,8.56672 0,5.5145 -0.26499,6.23824 -3.26578,8.91944 -3.43695,3.07092 -7.74019,3.78792 -11.29996,1.88279 -1.33333,-0.71358 -1.93426,-0.71358 -1.93426,0 0,0.56935 -1.35,1.03518 -3,1.03518 l -3,0 0,-20 z m 16.23469,11.6003 C 425.61245,464.03926 422.58143,458 418.41644,458 c -6.29346,0 -7.48538,10.30816 -1.41644,12.24984 1.65376,0.5291 5.08625,-0.9296 6.23469,-2.64954 z m 11.23622,7.1845 c -0.28474,-0.74203 -0.39468,-9.65967 -0.24431,-19.81697 L 434.5,436.5 l 3,0 3,0 0,19.5 0,19.5 -2.75569,0.31697 c -1.63662,0.18825 -2.96592,-0.2309 -3.2734,-1.03217 z m 50.9743,-0.067 c -0.2706,-0.7052 -0.36898,-9.5927 -0.21861,-19.75 L 485.5,436.5 l 3,0 3,0 0.28746,8.649 0.28746,8.64899 2.78618,-1.05166 c 8.31832,-3.13982 15.73648,5.60699 13.09016,15.43469 -1.63431,6.06936 -8.80661,9.57231 -13.95631,6.81628 -1.25242,-0.67028 -2.07903,-0.67028 -2.49328,0 -0.89384,1.44627 -5.47535,1.23486 -6.05646,-0.27947 z M 500.75,468.72232 c 1.51578,-1.17286 1.63697,-6.13074 0.21482,-8.78806 -1.46332,-2.73423 -6.40987,-2.56465 -8.40812,0.28825 -2.19189,3.12937 -1.94035,5.48475 0.88777,8.31287 2.41524,2.41524 4.36137,2.46504 7.30553,0.18694 z m 15.14281,4.47322 c -3.15026,-2.81476 -3.39281,-3.46466 -3.39281,-9.09078 0,-5.16394 0.37736,-6.43667 2.55375,-8.61306 1.40456,-1.40456 4.10456,-2.80116 6,-3.10355 6.73253,-1.07409 11.42886,2.64869 12.6228,10.00608 0.52621,3.24268 0.35941,3.60577 -1.65649,3.60577 l -2.24163,0 2.22995,1.8057 2.22995,1.8057 -2.42801,2.82273 c -1.902,2.2112 -3.52168,2.92781 -7.47635,3.3078 -4.54942,0.43714 -5.38365,0.18549 -8.44116,-2.54639 z m 12.06188,-5.64094 c 1.14082,-1.37461 0.64286,-1.5546 -4.30086,-1.5546 -4.69029,0 -5.49315,0.25515 -4.98335,1.58368 1.36432,3.55534 6.32229,3.5398 9.28421,-0.0291 z M 526.75,459.75 c -0.22917,-0.6875 -1.91667,-1.25 -3.75,-1.25 -1.83333,0 -3.52083,0.5625 -3.75,1.25 -0.28889,0.86667 0.86111,1.25 3.75,1.25 2.88889,0 4.03889,-0.38333 3.75,-1.25 z M 539,467 c 0,-5.33333 -0.40741,-9 -1,-9 -0.55,0 -1,-1.125 -1,-2.5 0,-1.375 0.45,-2.5 1,-2.5 0.55,0 1,-1.8 1,-4 0,-3.77778 0.16667,-4 3,-4 2.84113,0 3,0.21518 3,4.06336 0,3.98191 0.0651,4.05708 3.25,3.75 2.9671,-0.28608 3.27702,-0.63978 3.56037,-4.06336 0.28243,-3.4125 0.57493,-3.75 3.25,-3.75 2.7629,0 2.93963,0.24048 2.93963,4 0,3.33333 0.33333,4 2,4 1.46667,0 2,0.66667 2,2.5 0,1.81679 -0.53593,2.5 -1.96107,2.5 -1.77666,0 -1.98823,0.82279 -2.25,8.75 -0.28689,8.68829 -0.30804,8.7522 -2.99908,9.06258 l -2.71016,0.31257 -0.28984,-8.81257 L 551.5,458.5 l -3.25,-0.31336 -3.25,-0.31336 0,9.06336 0,9.06336 -3,0 -3,0 0,-9 z m 29.30082,7.04187 c -6.90424,-4.20978 -6.37325,-16.88458 0.86416,-20.62718 7.69251,-3.97795 15.83502,0.9751 15.83502,9.63236 0,2.38379 -0.43367,2.96067 -2.25,2.99299 -2.0584,0.0366 -1.99962,0.17557 0.69023,1.63161 l 2.94024,1.59157 -3.67555,3.36839 c -4.35587,3.99185 -9.36571,4.48235 -14.4041,1.41026 z M 578.75,468.72232 C 581.15184,466.86385 579.96188,466 575,466 c -5.37863,0 -6.24675,1.01334 -2.8852,3.36786 2.0828,1.45885 4.17912,1.2549 6.6352,-0.64554 z m -1,-8.97232 c -0.22917,-0.6875 -1.69167,-1.25 -3.25,-1.25 -1.55833,0 -3.02083,0.5625 -3.25,1.25 -0.28283,0.84848 0.76111,1.25 3.25,1.25 2.48889,0 3.53283,-0.40152 3.25,-1.25 z m 12.25,4.75 0,-11.5 2.75,-0.011 c 1.5125,-0.006 4.325,-0.24736 6.25,-0.53625 4.94866,-0.74266 6.73142,0.64656 5.18505,4.04047 -0.92125,2.02191 -1.67671,2.48552 -3.24113,1.98899 C 597.18656,457.28966 596,459.60336 596,468.12244 l 0,7.87756 -3,0 -3,0 0,-11.5 z m 32.63486,9.42742 c -3.15492,-2.48166 -3.28928,-3.50682 -0.64505,-4.92197 1.51185,-0.80911 2.57052,-0.68441 4.4074,0.51916 1.84353,1.20792 2.59609,1.29525 3.1693,0.36777 0.72845,-1.17866 -0.0463,-1.97526 -6.01962,-6.18906 -3.47651,-2.45249 -3.43627,-6.85858 0.088,-9.63074 3.37584,-2.65544 6.39044,-2.6293 9.29921,0.0806 l 2.31119,2.1532 -2.35501,1.77639 c -1.72259,1.29935 -2.70191,1.48848 -3.6468,0.7043 -0.71048,-0.58965 -1.61841,-0.72136 -2.01762,-0.29269 -0.3992,0.42868 -0.1849,0.97311 0.47623,1.20986 0.66114,0.23675 2.68614,1.42712 4.5,2.64526 4.56201,3.06373 5.13079,8.4569 1.21661,11.53579 -3.40706,2.68 -7.4104,2.69563 -10.78381,0.0421 z m 22.12771,0.50719 C 641.32885,472.5715 639,468.16658 639,463.53497 c 0,-5.11006 5.06818,-10.46617 10.60645,-11.20901 6.07349,-0.81463 8.39355,0.81558 8.39355,5.89779 l 0,4.15337 -2.03896,-2.18856 c -2.70684,-2.90546 -7.35725,-2.88867 -9.40434,0.034 -4.75408,6.78741 3.57421,13.64658 9.4433,7.77749 2,-2 2,-2 2,2.38337 0,3.70039 -0.35058,4.47732 -2.25,4.98634 -3.74525,1.00369 -8.09678,0.63335 -10.98743,-0.9351 z M 663,456 l 0,-20 3,0 3,0 0,8.48087 0,8.48087 4.26169,-0.58413 c 3.36632,-0.46141 4.78449,-0.16111 6.75,1.4293 2.30295,1.86346 2.51391,2.76504 2.83202,12.10326 l 0.3437,10.08983 -3.05477,0 -3.05477,0 -0.28894,-8.75 c -0.28795,-8.72045 -0.29821,-8.75107 -3.03844,-9.06638 C 670.22104,457.7775 669,460.70293 669,469.5651 l 0,6.4349 -3,0 -3,0 0,-20 z m 29.75566,18.24521 c -9.29058,-5.76044 -5.98805,-20.46546 4.92497,-21.9292 7.573,-1.01575 13.39432,4.0311 13.50021,11.70415 0.12975,9.40148 -10.3625,15.22415 -18.42518,10.22505 z M 703.75,468.16913 c 1.75321,-2.17593 1.55602,-6.72026 -0.37543,-8.6517 -2.51001,-2.51001 -7.58369,-1.59827 -9.12795,1.64029 -3.15467,6.61586 4.98403,12.62045 9.50338,7.01141 z m 17.01257,6.26548 c -7.92877,-4.30211 -7.41614,-16.99847 0.84462,-20.91845 10.95464,-5.19832 21.45566,5.72648 15.87588,16.51657 -2.82818,5.4691 -10.85773,7.58298 -16.7205,4.40188 z m 11.47212,-6.83431 c 1.27923,-1.91583 0.82588,-5.87588 -0.88968,-7.77156 C 727.72434,455.82795 721,458.90819 721,464.56752 c 0,2.16535 2.30387,4.77649 5,5.66686 1.64859,0.54443 5.08048,-0.90551 6.23469,-2.63408 z M 744,456 l 0,-20 3,0 3,0 0,20 0,20 -3,0 -3,0 0,-20 z m 11.3874,17.284 c -2.3576,-2.54389 -2.40583,-2.79736 -0.76112,-4 2.25954,-1.65221 3.34673,-1.6184 5.31782,0.16541 0.98283,0.88945 2.12517,1.12581 2.95685,0.6118 1.78818,-1.10515 0.69613,-2.70459 -3.21436,-4.70785 -3.89385,-1.99474 -4.65158,-3.06588 -4.67128,-6.60336 -0.0343,-6.16691 7.57901,-8.93963 11.90438,-4.33549 l 2.26831,2.41451 -2.07348,1.10969 c -1.14042,0.61033 -3.20771,0.82502 -4.594,0.47708 -3.73779,-0.93812 -3.05748,0.26963 1.44604,2.56715 6.4607,3.296 7.87632,8.26509 3.57889,12.56251 -3.47022,3.47023 -8.80599,3.35548 -12.15805,-0.26145 z m 19.68653,0.85414 c -1.28082,-2.39323 0.82369,-5.49988 3.38498,-4.99688 2.80196,0.55026 4.1953,3.36554 2.61066,5.27492 -1.77536,2.13917 -4.77647,2 -5.99564,-0.27804 z M 365.66045,446.51759 c -1.71646,-1.71645 -1.13783,-5.12043 1.01053,-5.94483 3.72176,-1.42817 6.93633,3.41993 4.12902,6.22724 -1.60774,1.60774 -3.34485,1.51229 -5.13955,-0.28241 z m 30.37942,0.0305 c -2.64768,-3.19026 1.25886,-8.20486 4.37631,-5.61761 1.88116,1.56123 2.0537,4.19969 0.38382,5.86957 -1.60329,1.60329 -3.29471,1.51376 -4.76013,-0.25196 z m 64.87326,-23.12482 c 2.24778,-4.16729 4.08687,-8.0079 4.08687,-8.53474 0,-0.52685 -2.025,-4.52669 -4.5,-8.88853 -2.475,-4.36184 -4.5,-8.39623 -4.5,-8.96531 0,-0.56908 1.57115,-1.03469 3.49145,-1.03469 3.19895,0 3.75766,0.47169 6.66901,5.63033 l 3.17756,5.63032 2.84702,-5.63032 c 2.63866,-5.21828 3.102,-5.63033 6.33099,-5.63033 1.91618,0 3.48397,0.43405 3.48397,0.96456 0,0.53051 -3.86364,8.40551 -8.58586,17.5 L 464.82828,431 l -4.00101,0 -4.001,0 4.08686,-7.57678 z M 725.22639,413.75 725.5,396.5 730,396.32166 c 2.475,-0.0981 5.85216,-0.27593 7.50481,-0.39521 7.15393,-0.51632 11.80745,4.17528 11.92549,12.02309 0.12396,8.24213 -6.31827,14.09016 -13.31219,12.08433 L 733,419.13961 l 0,5.9302 0,5.93019 -4.02361,0 -4.02362,0 0.27362,-17.25 z M 740.8,412.8 c 1.71162,-1.71162 1.48375,-7.37339 -0.37143,-9.22857 C 739.56429,402.70714 738.0148,402 736.98528,402 734.93612,402 732,405.53375 732,408 c 0,4.5161 5.87781,7.72219 8.8,4.8 z m -394.95736,7.22531 c -13.59367,-4.10665 -18.59891,-19.58627 -9.789,-30.27422 1.58235,-1.91966 4.42311,-4.22397 6.31281,-5.12069 4.31946,-2.04972 11.82508,-2.09984 15.68321,-0.10472 2.53139,1.30904 2.95034,2.10161 2.95034,5.58156 l 0,4.05588 -3.36803,-2.08156 c -2.02298,-1.25027 -5.05812,-2.08156 -7.6,-2.08156 -3.47949,0 -4.83652,0.60455 -7.63197,3.4 -2.82656,2.82656 -3.39937,4.13367 -3.39626,7.75 0.009,10.90293 10.16196,15.98606 19.24626,9.63608 l 2.75,-1.92227 0,4.52936 0,4.52935 -5.1815,1.53874 c -5.71609,1.6975 -6.14389,1.72168 -9.97586,0.56405 z m 37.54511,0.28701 c -1.16174,-0.22843 -3.41174,-1.77169 -5,-3.42948 -2.51809,-2.62833 -2.88775,-3.7709 -2.88775,-8.92578 0,-4.99059 0.39405,-6.30565 2.52921,-8.44082 7.21722,-7.21721 17.96018,-3.51875 19.62774,6.75721 0.55541,3.42261 0.41055,3.72903 -1.77611,3.75696 -2.28274,0.0291 -2.29844,0.0764 -0.38084,1.14748 1.1,0.61439 2.17346,1.26166 2.38546,1.43838 1.03735,0.86472 -3.44325,5.71884 -6.43112,6.96726 -3.40709,1.42357 -4.17856,1.49327 -8.06659,0.72879 z M 390.5,412 c 1.78774,-1.97543 1.74663,-2 -3.34501,-2 -2.83525,0 -5.15499,0.19286 -5.15499,0.42857 0,0.23572 0.70714,1.13572 1.57143,2 2.13636,2.13636 4.75387,1.97445 6.92857,-0.42857 z m -2.14747,-9.17475 c -1.49933,-0.72568 -2.70661,-0.71443 -4,0.0373 -1.54125,0.89574 -1.18041,1.07039 2.14747,1.03938 3.49003,-0.0325 3.72621,-0.16978 1.85253,-1.07666 z m 19.09987,16.79168 c -5.96719,-2.64364 -8.5543,-9.82254 -5.91604,-16.41621 1.99393,-4.98331 5.5097,-7.4503 10.33108,-7.24923 1.99791,0.0833 5.65756,0.24082 8.13256,0.35 l 4.5,0.19851 0,11.5 0,11.5 -4.5,0.10573 c -2.475,0.0582 -5.625,0.38826 -7,0.73356 -1.375,0.3453 -3.87142,0.0202 -5.5476,-0.72236 z m 9.51606,-8.86693 c 1.37557,-2.46994 1.37538,-3.03006 -0.002,-5.5 -1.80861,-3.24353 -5.06264,-4.01108 -7.34193,-1.73179 -1.92005,1.92005 -2.15072,7.55572 -0.38167,9.32477 2.01933,2.01933 6.04221,0.92945 7.72548,-2.09298 z m 89.57322,9.52056 c -7.92576,-2.01326 -11.97308,-11.34594 -7.90614,-18.23073 3.05184,-5.16635 10.01899,-7.5538 16.26171,-5.57244 1.77628,0.56377 2.10275,1.46225 2.10275,5.78709 l 0,5.1197 -2.80472,-2.68709 C 510.85102,401.48308 508.69747,401.30253 506,404 c -2.49581,2.49581 -2.57127,6.17303 -0.17126,8.34501 2.45893,2.2253 5.73946,2.08679 8.17126,-0.34501 1.1,-1.1 2.225,-2 2.5,-2 0.275,0 0.5,2.00385 0.5,4.453 0,4.29387 -0.134,4.49021 -3.75,5.49442 -2.0625,0.57278 -3.975,0.99174 -4.25,0.931 -0.275,-0.0607 -1.38124,-0.33427 -2.45832,-0.60786 z m 19.87351,-0.65845 c -8.86925,-3.95806 -10.16608,-16.02251 -2.3461,-21.82589 5.5586,-4.12517 15.39103,-1.55104 18.41475,4.82097 1.93132,4.06994 1.91415,6.75186 -0.07,10.93312 -2.81427,5.93062 -10.11028,8.6996 -15.99866,6.0718 z m 9.55327,-8.86211 c 1.37557,-2.46994 1.37538,-3.03006 -0.002,-5.5 C 533.06525,400.0468 526,402.0555 526,408.08356 c 0,6.07118 7.02566,7.95046 9.96846,2.66644 z m 69.41929,9.56232 c -1.16174,-0.22843 -3.41174,-1.77169 -5,-3.42948 -2.51809,-2.62833 -2.88775,-3.7709 -2.88775,-8.92578 0,-4.99059 0.39405,-6.30565 2.52921,-8.44082 7.21722,-7.21721 17.96018,-3.51875 19.62774,6.75721 0.55541,3.42261 0.41055,3.72903 -1.77611,3.75696 -2.28274,0.0291 -2.29844,0.0764 -0.38084,1.14748 1.1,0.61439 2.17346,1.26166 2.38546,1.43838 1.03735,0.86472 -3.44325,5.71884 -6.43112,6.96726 -3.40709,1.42357 -4.17856,1.49327 -8.06659,0.72879 z M 612.5,412 c 1.78774,-1.97543 1.74663,-2 -3.34501,-2 -2.83525,0 -5.15499,0.19286 -5.15499,0.42857 0,0.23572 0.70714,1.13572 1.57143,2 2.13636,2.13636 4.75387,1.97445 6.92857,-0.42857 z m -2.14747,-9.17475 c -1.49933,-0.72568 -2.70661,-0.71443 -4,0.0373 -1.54125,0.89574 -1.18041,1.07039 2.14747,1.03938 3.49003,-0.0325 3.72621,-0.16978 1.85253,-1.07666 z m 20.64798,17.0513 c -6.38262,-2.5451 -9.98548,-9.36203 -8.04904,-15.2295 2.26536,-6.86412 9.4898,-10.51264 16.22872,-8.19592 4.16568,1.4321 5.52142,0.39644 5.99753,-4.58155 0.28604,-2.99067 0.68774,-3.40482 3.57228,-3.68294 3.18486,-0.30708 3.25,-0.23191 3.25,3.75 0,3.39669 0.32814,4.06336 2,4.06336 1.61905,0 2,0.66667 2,3.5 0,2.83333 -0.38095,3.5 -2,3.5 -1.8443,0 -2,0.66667 -2,8.56336 l 0,8.56336 -3.25,-0.31336 -3.25,-0.31336 -0.29044,-8.25 c -0.15975,-4.5375 -0.72225,-8.25 -1.25,-8.25 -0.52776,0 -0.95956,0.675 -0.95956,1.5 0,1.98522 -0.68441,1.8934 -3.72713,-0.5 -4.5917,-3.61183 -9.27287,-1.59253 -9.27287,4 0,5.53441 5.87335,8.0074 9.5,4 2.67223,-2.95278 3.5,-2.4677 3.5,2.05103 0,3.67738 -0.31986,4.18467 -3.46788,5.5 -3.97845,1.6623 -5.07435,1.70411 -8.53161,0.32552 z m 33.32497,-0.33568 c -6.00325,-2.61128 -8.73466,-10.23246 -6.007,-16.76067 1.96648,-4.70645 5.61924,-7.03048 10.93582,-6.95782 3.54729,0.0485 4.78032,0.64118 7.4957,3.60314 2.37777,2.59367 3.25,4.48838 3.25,7.05979 0,2.95814 -0.35629,3.52541 -2.25,3.58237 l -2.25,0.0677 2.25,1.08513 c 1.2375,0.59683 2.25,1.61293 2.25,2.25801 0,2.57279 -7.60954,7.60477 -11.3151,7.48236 -0.65169,-0.0215 -2.61344,-0.66053 -4.35942,-1.41999 z m 8.29169,-7.29087 c 1.67793,-1.66838 1.5598,-1.76458 -2.53266,-2.06258 -4.95142,-0.36056 -5.87545,0.15462 -4.10457,2.28841 1.68009,2.02439 4.46958,1.92948 6.63723,-0.22583 z M 671.5,403 c -0.33992,-0.55 -1.46492,-1 -2.5,-1 -1.03508,0 -2.16008,0.45 -2.5,1 -0.36155,0.585 0.67595,1 2.5,1 1.82405,0 2.86155,-0.415 2.5,-1 z m 18.91844,17.05268 c -1.14486,-0.47499 -3.28236,-2.29068 -4.75,-4.03487 -4.01142,-4.7673 -3.79114,-11.66953 0.52947,-16.59043 3.05962,-3.48472 3.42718,-3.6232 8.5,-3.20253 l 5.30209,0.4397 0,-8.33228 0,-8.33227 3.5,0 3.5,0 0,20.05047 0,20.05047 -4.75,-0.21262 c -2.6125,-0.11694 -5.875,0.0665 -7.25,0.40768 -1.375,0.34116 -3.4367,0.23167 -4.58156,-0.24332 z m 8.01013,-7.62411 C 701.65616,409.20098 699.23102,402 694.91644,402 692.27069,402 690,404.77114 690,408 c 0,3.26647 2.27794,6 5,6 1.02143,0 2.56429,-0.70714 3.42857,-1.57143 z M 759.5,420.05715 c -1.1,-0.46114 -3.07715,-1.99796 -4.39366,-3.41516 -2.86435,-3.08342 -3.87954,-10.86103 -1.8986,-14.54559 1.78287,-3.31613 5.8002,-6.094 8.79226,-6.07958 1.375,0.007 5.0875,-10e-4 8.25,-0.0178 l 5.75,-0.0298 0,12.06148 0,12.06148 -4.25,-0.20066 c -2.3375,-0.11036 -5.6,0.0704 -7.25,0.40172 -1.65,0.33131 -3.9,0.22508 -5,-0.23606 z m 8.87525,-9.16672 c 2.27258,-6.50226 -3.55532,-11.85617 -7.54397,-6.9304 -2.28837,2.82602 -2.33681,5.82388 -0.13346,8.25856 2.41835,2.67225 6.52773,1.96134 7.67743,-1.32816 z m 34.95023,8.68396 c -9.66156,-4.30459 -8.8111,-20.68962 1.21762,-23.45868 5.07058,-1.40005 10.12783,0.29672 12.50518,4.19566 2.52242,4.13686 2.63757,9.67992 0.20172,9.71087 -1.47145,0.0187 -1.38729,0.30138 0.52874,1.77597 l 2.27874,1.75375 -3.27874,3.14784 c -3.93008,3.77317 -9.00336,4.85719 -13.45326,2.87459 z M 811.8,412.8 c 2.11446,-2.11446 1.30651,-2.8 -3.3,-2.8 -2.475,0 -4.5,0.36 -4.5,0.8 0,1.49763 2.39395,3.2 4.5,3.2 1.155,0 2.64,-0.54 3.3,-1.2 z m -1.3,-9.8 c -0.33992,-0.55 -1.46492,-1 -2.5,-1 -1.03508,0 -2.16008,0.45 -2.5,1 -0.36155,0.585 0.67595,1 2.5,1 1.82405,0 2.86155,-0.415 2.5,-1 z m 53.82874,16.54224 c -2.67988,-1.16573 -6.22874,-5.2412 -5.15976,-5.92541 0.18206,-0.11652 1.58369,-0.75025 3.11474,-1.40827 2.31167,-0.99353 2.88092,-0.94308 3.35699,0.29752 0.6445,1.67955 2.93047,1.99677 3.83559,0.53226 0.32689,-0.52891 -1.23969,-1.8973 -3.48127,-3.04088 -5.97143,-3.04639 -7.16204,-7.62034 -3.18804,-12.24746 2.03623,-2.37088 8.36393,-2.3236 10.53802,0.0787 2.2676,2.50567 2.08318,3.60414 -0.87048,5.18489 l -2.52547,1.35159 3.03212,1.9198 c 1.66767,1.05589 3.29075,2.95025 3.60685,4.20969 0.84861,3.38114 -2.02544,8.11352 -5.70687,9.39687 -1.74878,0.60963 -3.22496,1.09081 -3.28038,1.06928 -0.0554,-0.0215 -1.52785,-0.65991 -3.27204,-1.41862 z M 869,403 c 0,-0.55 -0.47656,-1 -1.05902,-1 -0.58246,0 -0.7809,0.45 -0.44098,1 0.33992,0.55 0.81648,1 1.05902,1 0.24254,0 0.44098,-0.45 0.44098,-1 z m 13.15461,16.39574 C 880.96957,418.56571 880,417.26263 880,416.5 c 0,-0.76263 0.96957,-2.06571 2.15461,-2.89574 C 884.95351,411.64384 888,413.15303 888,416.5 c 0,3.34697 -3.04649,4.85616 -5.84539,2.89574 z M 281.25988,411.25 c -2.21661,-4.8125 -4.33197,-9.74601 -4.7008,-10.96336 -0.49194,-1.62368 1.58734,-6.81881 7.8046,-19.5 9.951,-20.29679 43.90203,-94.96831 49.34853,-108.53664 0.39907,-0.99416 -16.97355,-1.25 -84.87954,-1.25 l -85.3813,0 -4.71912,-9.5 -4.71911,-9.5 104.56082,0 104.56082,0 -0.65886,2.07587 c -0.36237,1.14173 -2.23861,5.52923 -4.16943,9.75 -1.93082,4.22077 -11.52586,25.67413 -21.32233,47.67413 -9.79646,22 -21.22554,47.346 -25.39795,56.32444 C 307.41379,376.80288 304,384.3788 304,384.65981 304,385.87362 286.59444,420 285.97536,420 c -0.37691,0 -2.49888,-3.9375 -4.71548,-8.75 z m 83.20984,7.5317 c -0.28409,-0.74033 -0.39349,-9.65657 -0.24312,-19.81387 L 364.5,380.5 l 3.5,0 3.5,0 0,19.5 0,19.5 -3.25688,0.31387 c -2.04728,0.1973 -3.44871,-0.18604 -3.7734,-1.03217 z M 429,408.05556 l 0,-11.94445 7.5527,0 c 8.09512,0 9.56674,0.92869 7.52298,4.74749 -0.6671,1.24648 -2.31726,2.13435 -4.32701,2.32814 L 436.5,403.5 l -0.29044,8.25 -0.29044,8.25 -3.45956,0 -3.45956,0 0,-11.94444 z M 447,400 l 0,-20 3.5,0 3.5,0 0,20 0,20 -3.5,0 -3.5,0 0,-20 z m 100.45613,18.74627 c -0.29157,-0.75981 -0.40098,-6.07606 -0.24313,-11.81387 L 547.5,396.5 l 5,-0.21477 c 2.75,-0.11813 6.35,-0.25756 8,-0.30985 2.07201,-0.0657 3.69599,0.71401 5.25,2.52054 1.98987,2.31321 2.25,3.70748 2.25,12.05984 l 0,9.44424 -3.46107,0 -3.46106,0 -0.28894,-8.75 C 560.5053,402.66038 560.45418,402.5 558,402.5 c -2.43137,0 -2.51373,0.23333 -3,8.5 l -0.5,8.5 -3.25688,0.31387 c -2.08333,0.20078 -3.44789,-0.18391 -3.78699,-1.0676 z M 573,408.06136 l 0,-11.93863 7.85877,-0.0173 c 6.38885,-0.014 8.24506,0.34262 9.92407,1.90685 2.27767,2.12197 3.59119,9.45247 3.04396,16.98769 -0.32055,4.41394 -0.39373,4.5 -3.8268,4.5 l -3.5,0 -0.5,-8.49012 c -0.42953,-7.29358 -0.76498,-8.54062 -2.38017,-8.8484 -2.83354,-0.53993 -3.58769,1.57082 -3.60452,10.08852 L 580,420 l -3.5,0 -3.5,0 0,-11.93864 z m 208,-0.009 0,-11.94774 5.25,-0.30226 c 4.60714,-0.26525 10.75,0.7339 10.75,1.74851 0,0.19532 -0.51133,1.47736 -1.13628,2.84898 -0.79566,1.74628 -2.06967,2.58475 -4.25,2.79706 L 788.5,403.5 l -0.29044,8.25 -0.29044,8.25 -3.45956,0 -3.45956,0 0,-11.94774 z m 42,0.003 0,-11.94445 7.66955,0 c 4.21825,0 8.44592,0.4155 9.39481,0.92334 2.62484,1.40476 3.93564,6.43889 3.93564,15.11477 l 0,7.85078 -3.5,0 -3.5,0 -0.0136,-6.75 C 836.96932,404.83522 836.23772,402 834.08337,402 830.89037,402 830,404.22409 830,412.2 l 0,7.8 -3.5,0 -3.5,0 0,-11.94444 z m 25.66667,11.27777 C 848.3,418.96667 848,415.14167 848,410.83333 848,406.27778 847.58156,403 847,403 c -0.55,0 -1,-1.575 -1,-3.5 0,-1.925 0.42284,-3.5 0.93963,-3.5 0.5168,0 1.0793,-1.6875 1.25,-3.75 0.28335,-3.42358 0.59327,-3.77728 3.56037,-4.06336 3.18486,-0.30708 3.25,-0.23191 3.25,3.75 0,3.39669 0.32814,4.06336 2,4.06336 1.61905,0 2,0.66667 2,3.5 0,2.83333 -0.38095,3.5 -2,3.5 -1.84314,0 -2,0.66667 -2,8.5 l 0,8.5 -2.83333,0 c -1.55834,0 -3.13334,-0.3 -3.5,-0.66667 z M 436,326 l 0,-49 9.09362,0 c 7.9409,0 9.15373,0.22988 9.56786,1.81351 0.44328,1.69511 0.79778,1.65338 5.43031,-0.63923 3.84025,-1.90052 6.49068,-2.44312 11.77231,-2.41006 9.41806,0.059 15.83532,2.95605 22.08842,9.97187 15.4913,17.38085 10.26169,47.54841 -9.80335,56.55168 -7.00443,3.14291 -17.09667,2.98039 -23.89932,-0.38486 L 455,339.30582 l 0,17.84709 0,17.84709 -9.5,0 -9.5,0 0,-49 z m 39.63298,0.36987 C 480.67717,323.97625 484,317.72541 484,310.63002 c 0,-7.01051 -1.74573,-11.39684 -5.94075,-14.92671 C 475.39091,293.45805 473.88151,293 469.15112,293 c -10.28559,0 -15.81984,7.07824 -14.94886,19.11941 0.87738,12.1297 11.29783,19.05883 21.43072,14.25046 z M 514,326 l 0,-49 9.09362,0 c 7.9409,0 9.15373,0.22988 9.56786,1.81351 0.44328,1.69511 0.79778,1.65338 5.43031,-0.63923 3.84025,-1.90052 6.49068,-2.44312 11.77231,-2.41006 9.41806,0.059 15.83532,2.95605 22.08842,9.97187 15.4913,17.38085 10.26169,47.54841 -9.80335,56.55168 -7.00443,3.14291 -17.09667,2.98039 -23.89932,-0.38486 L 533,339.30582 l 0,17.84709 0,17.84709 -9.5,0 -9.5,0 0,-49 z m 39.63298,0.36987 C 558.67717,323.97625 562,317.72541 562,310.63002 c 0,-7.01051 -1.74573,-11.39684 -5.94075,-14.92671 C 553.39091,293.45805 551.88151,293 547.15112,293 c -10.28559,0 -15.81984,7.07824 -14.94886,19.11941 0.87738,12.1297 11.29783,19.05883 21.43072,14.25046 z m 60.10149,17.59949 C 599.06401,340.28937 589.8005,327.41748 589.6476,310.5 589.48497,292.50578 599.4785,278.96884 615,276.15843 c 6.53101,-1.18254 13.78881,-0.0701 18.48713,2.83362 C 637.53101,281.4913 638,281.49213 638,279 c 0,-1.85185 0.66667,-2 9,-2 l 9,0 0,33 0,33 -9,0 c -8.25975,0 -9,-0.16056 -9,-1.95212 0,-1.8596 -0.22902,-1.8333 -4.83225,0.55494 -5.42272,2.81341 -13.65518,3.81594 -19.43328,2.36654 z m 15.73136,-17.39064 c 1.91146,-0.79866 4.58057,-3.20282 6.09289,-5.48808 5.28366,-7.98416 2.85835,-22.0502 -4.55727,-26.43071 -3.83547,-2.26567 -11.69906,-2.14174 -15.61494,0.24609 -6.86188,4.18424 -9.33706,15.80913 -5.13651,24.12402 4.01146,7.94058 11.36457,10.82915 19.21583,7.54868 z m 110.26864,17.396 C 724.4241,340.11241 715.02374,327.18788 715.02374,310 c 0,-10.30168 3.42266,-19.37973 9.65726,-25.61434 10.93705,-10.93704 29.74867,-11.78709 42.67416,-1.92833 6.82624,5.20662 12.05994,20.08964 10.82842,30.79267 -0.30693,2.66745 -0.50204,2.75046 -6.5,2.76542 l -6.18358,0.0154 6.5,3.63752 c 3.575,2.00064 6.65359,3.75978 6.84131,3.90922 1.04892,0.835 -1.64884,5.18065 -6.40586,10.3188 -3.48627,3.76559 -7.23012,6.62938 -10.51271,8.04151 -5.78531,2.48877 -16.49838,3.47221 -22.18827,2.03683 z m 13.62244,-17.35049 C 756.37496,325.36321 763,318.59459 763,316.77216 763,316.34747 756.7,316 749,316 c -12.99591,0 -14,0.13377 -14,1.86514 0,2.6678 3.80849,7.14309 7.41519,8.71345 3.98684,1.73587 6.86767,1.74789 10.94172,0.0456 z M 758,298.56809 C 758,295.86702 752.49989,293 747.31814,293 c -5.09431,0 -8.54352,1.68409 -10.34559,5.05128 C 735.96807,299.92818 736.33632,300 746.96482,300 755.87397,300 758,299.72413 758,298.56809 Z M 670,310 l 0,-33 8.8,0 c 5.33212,0 9.25619,0.45619 9.95762,1.15762 0.8214,0.8214 1.53297,0.8498 2.45,0.0978 0.71081,-0.58291 3.23093,-1.5782 5.60026,-2.21175 3.47638,-0.92956 5.31008,-0.86042 9.5,0.35819 9.4439,2.74669 9.5318,2.97253 4.81112,12.36149 l -4.091,8.1366 -4.38907,-1.94149 c -3.55016,-1.5704 -4.97089,-1.73867 -7.4331,-0.88034 C 689.70912,295.99425 689,299.23065 689,322.40113 L 689,343 l -9.5,0 -9.5,0 0,-33 z m 120,0 0,-33 9,0 c 7.54386,0 9,0.25617 9,1.58333 0,0.87084 0.3375,1.40961 0.75,1.19727 6.14137,-3.1613 9.51033,-4.08464 14.81848,-4.06138 7.6523,0.0335 14.22727,2.83537 17.87429,7.61685 C 846.32418,289.73594 847,294.15318 847,319.65893 L 847,343 l -8.87104,0 -8.87103,0 -0.44115,-22.38888 c -0.49415,-25.07879 -0.96706,-26.96587 -6.97894,-27.84823 -5.27202,-0.77377 -9.62003,0.93159 -11.55917,4.53367 -1.43794,2.67108 -1.78711,6.73488 -2.10107,24.45344 l -0.37653,21.25 -8.90053,0 -8.90054,0 0,-33 z m 71,9.06642 0,-23.93358 -2.75,-0.31642 c -2.74084,-0.31537 -2.75096,-0.34558 -3.03893,-9.06642 l -0.28894,-8.75 3.00619,0 3.00618,0 0.28275,-11.25 0.28275,-11.25 9,0 9,0 0.28275,11.25 0.28275,11.25 4.46725,0 4.46725,0 0,9 0,9 -4.5,0 -4.5,0 0,24 0,24 -9.5,0 -9.5,0 0,-23.93358 z"
       id="path3503"
       inkscape:connector-curvature="0" />
    <path
       style="fill:#fd8a07"
       d="m 445,486.4529 c 0,-0.30091 1.83939,-3.89857 4.08754,-7.99481 l 4.08753,-7.4477 -5.01117,-9.0052 -5.01116,-9.00519 3.32817,0 c 3.00618,0 3.64003,0.55258 6.55157,5.71155 l 3.2234,5.71155 2.88809,-5.71155 C 461.78792,453.48282 462.31383,453 465.36525,453 l 3.33318,0 -8.59921,16.98855 c -8.46483,16.72304 -8.65001,16.98873 -11.84922,17 -1.7875,0.006 -3.25,-0.23475 -3.25,-0.53565 z M 274.02705,452.25 c -6.81795,-15.2625 -13.92391,-30.9 -15.79102,-34.75 -1.86711,-3.85 -13.29944,-29.05 -25.40517,-56 -12.10573,-26.95 -23.35305,-51.3625 -24.99403,-54.25 l -2.98361,-5.25 10.90889,0 10.90888,0 9.73124,22.25 c 5.35219,12.2375 10.68247,24.5 11.84508,27.25 1.1626,2.75 6.57977,14.225 12.03814,25.5 5.45837,11.275 11.48398,24.325 13.39024,29 7.86183,19.28072 12.73955,29.97777 13.3426,29.26087 0.35201,-0.41848 3.48222,-7.06087 6.95601,-14.76087 10.80234,-23.94446 16.15868,-35.63485 21.07643,-46 2.60948,-5.5 5.6562,-12.025 6.77048,-14.5 6.75462,-15.00305 23.77705,-51.28739 34.95092,-74.5 7.14836,-14.85 13.701,-28.6875 14.56142,-30.75 l 1.5644,-3.75 8.87618,0 8.87618,0 15.82061,35.25 c 8.70133,19.3875 17.9828,40.0875 20.62548,46 l 4.80488,10.75 -10.30305,0 -10.30304,0 -5.26339,-12.02119 -5.26338,-12.02118 -19.04278,0.27118 L 362.68286,319.5 350.28969,346 c -6.81625,14.575 -15.93003,34.15 -20.25285,43.5 -4.32282,9.35 -10.29467,21.95 -13.27078,28 -2.97611,6.05 -10.7675,22.5875 -17.31418,36.75 -6.54669,14.1625 -12.15631,25.75 -12.46581,25.75 -0.30951,0 -6.14107,-12.4875 -12.95902,-27.75 z m 117.59881,-154.5 c -6.42205,-14.89788 -8.79682,-20.25429 -9.12542,-20.5829 -0.34979,-0.34979 -2.59981,4.24685 -9.09619,18.5829 l -2.37903,5.25 11.00081,0 11.00081,0 -1.40098,-3.25 z m -46.56644,177.90625 c -0.59466,-1.56407 -4.00131,-10.00518 -7.57031,-18.75802 C 333.9201,448.14538 331,440.73406 331,440.42862 c 0,-0.30543 1.44034,-0.41433 3.20076,-0.24198 3.06017,0.2996 3.38198,0.76662 7.3267,10.63276 2.26928,5.67566 4.50692,10.31939 4.97254,10.31939 0.46562,0 2.70326,-4.64373 4.97254,-10.31939 3.94472,-9.86614 4.26653,-10.33316 7.3267,-10.63276 1.76042,-0.17235 3.20076,-0.0319 3.20076,0.31204 0,0.7259 -13.82016,34.26535 -15.04062,36.50132 -0.64344,1.17883 -1.05024,0.89112 -1.89996,-1.34375 z M 377.3874,473.284 c -2.3576,-2.54389 -2.40583,-2.79736 -0.76112,-4 2.27493,-1.66346 3.1821,-1.61847 5.05109,0.25052 1.17564,1.17563 1.85798,1.26607 2.91757,0.38669 1.82678,-1.51609 1.06845,-2.54212 -3.66279,-4.95582 -3.27628,-1.67144 -3.93215,-2.514 -3.93215,-5.05146 0,-4.37596 1.5456,-6.65522 5.03232,-7.42103 5.10703,-1.12169 10.85413,4.18549 6.38822,5.89922 -0.86871,0.33335 -2.66871,0.33271 -4,-10e-4 -3.60492,-0.90478 -2.92505,0.99829 1.03051,2.88457 4.94682,2.35897 6.83842,5.5959 5.50516,9.4205 -1.96013,5.62283 -9.43503,7.04865 -13.56881,2.58823 z m 39.36697,2.14162 c -0.4101,-0.41262 -2.7726,-0.67355 -5.25,-0.57984 L 407,475.01615 407,456.00808 407,437 l 3,0 3,0 0,8.60699 c 0,7.81069 0.16191,8.53893 1.75,7.8714 5.71691,-2.40301 10.24468,-1.12801 13.30521,3.74668 2.81459,4.48299 2.22235,11.95191 -1.22072,15.39499 -2.46082,2.46081 -8.69753,4.19665 -10.08012,2.80556 z M 422,469 c 4.56939,-4.56939 1.28155,-11.83509 -5,-11.04933 -4.26715,0.53378 -5.55308,8.84811 -1.77749,11.49263 2.93731,2.05737 4.37057,1.96362 6.77749,-0.4433 z m 72.08582,6.0742 c -0.7778,-0.49234 -2.9153,-0.65158 -4.75,-0.35384 L 486,475.26168 486,456.13084 486,437 l 2.5,0 c 2.47303,0 2.5,0.0929 2.5,8.60699 0,7.81975 0.16006,8.53753 1.75,7.84762 0.9625,-0.41766 3.20871,-0.96459 4.99158,-1.21542 2.68919,-0.37832 3.83943,0.14182 6.75,3.05239 2.98378,2.98378 3.50842,4.18925 3.50842,8.06137 0,2.50412 -0.48835,5.62475 -1.08521,6.93473 -2.01913,4.43149 -9.17312,7.10067 -12.82897,4.78652 z m 5.97006,-5.91837 c 2.56903,-2.08027 3.08343,-7.07811 0.98834,-9.60255 -1.92939,-2.32477 -6.65122,-1.95246 -8.48752,0.66923 -2.28718,3.2654 -1.904,6.35914 1.07816,8.70491 3.21797,2.53126 3.56201,2.5435 6.42102,0.22841 z M 518.5,475.05464 c -3.60087,-1.47381 -5.77865,-4.89489 -6.23494,-9.79451 -1.43051,-15.3608 18.91615,-18.24285 21.385,-3.02913 l 0.59785,3.68411 -8.37396,0.29244 L 517.5,466.5 l 2.25,2.25 c 2.80506,2.80506 4.65973,2.84027 7.36027,0.13973 1.76507,-1.76507 2.50587,-1.93003 4.52857,-1.00842 2.27976,1.03873 2.32993,1.23672 0.87571,3.45614 -2.69083,4.10672 -8.98437,5.77601 -14.01455,3.71719 z m 8.5,-15.01946 c 0,-1.8661 -3.8658,-3.17737 -6,-2.03518 -3.19031,1.7074 -2.32858,3 2,3 2.2,0 4,-0.43417 4,-0.96482 z m 42.5,14.86144 c -5.20409,-3.011 -7.22318,-11.02054 -4.36144,-17.30138 C 566.29498,455.05718 571.40996,452 574.5,452 c 3.09004,0 8.20502,3.05718 9.36144,5.59524 0.62621,1.37438 1.13856,3.82769 1.13856,5.45181 l 0,2.95295 -7.5,0 c -7.94823,0 -9.1442,0.87657 -4.94762,3.62628 2.43067,1.59263 2.69464,1.56721 5.53544,-0.53309 3.08064,-2.27761 6.91218,-2.11138 6.91218,0.29988 0,4.31831 -10.87481,8.1796 -15.5,5.50355 z m 9.28183,-15.05112 c -0.7908,-2.37242 -4.59053,-2.82324 -6.9831,-0.82852 l -2.29873,1.91648 4.83333,0.0333 c 3.2208,0.0222 4.70495,-0.3519 4.4485,-1.12123 z m 43.85303,14.08192 c -3.17966,-2.50112 -3.29114,-3.50582 -0.55167,-4.97194 1.65395,-0.88517 2.46515,-0.76921 3.93698,0.56278 1.01959,0.92271 2.33216,1.38202 2.91682,1.02068 1.71217,-1.05818 1.22344,-3.35325 -0.85453,-4.01277 -6.95615,-2.20779 -9.26263,-8.66609 -4.4476,-12.45359 3.48656,-2.74253 6.50472,-2.61736 9.32699,0.38682 l 2.31049,2.45939 -2.60656,1.18763 c -2.04538,0.93194 -2.93587,0.91432 -4.13617,-0.0818 C 627.26832,456.9778 627,457.0279 627,458.31017 c 0,0.85528 0.86289,1.82893 1.91754,2.16366 6.91966,2.19621 9.16404,8.5355 4.62791,13.07162 -3.03642,3.03643 -7.34426,3.18724 -10.91059,0.38197 z m 22.68612,0.45929 c -4.0891,-2.01658 -6.73593,-7.44226 -5.96078,-12.21892 1.14178,-7.03601 9.30709,-11.80132 15.8898,-9.27337 2.31044,0.88728 2.75,1.64424 2.75,4.73582 0,3.59573 -0.0449,3.6391 -1.96686,1.89975 C 651.87363,455.76568 645,458.60255 645,464.08356 c 0,5.54382 5.61694,8.3151 10.11419,4.99013 L 658,466.94013 l 0,3.49475 c 0,5.48452 -5.86458,7.31241 -12.67902,3.95183 z m 48.77542,0.34855 c -12.08278,-6.20958 -5.86149,-24.78978 7.46346,-22.29001 5.72074,1.07322 9.44014,5.57977 9.44014,11.438 0,2.61495 -0.68712,5.65274 -1.5607,6.89996 -3.27172,4.67102 -10.38078,6.50218 -15.3429,3.95205 z m 8.68109,-5.29196 c 2.56025,-1.79327 3.02811,-6.95931 0.89452,-9.87717 -1.86764,-2.55415 -6.63641,-2.32832 -8.86158,0.41965 -2.46807,3.04794 -2.27281,5.64274 0.64412,8.55967 2.86022,2.86023 4.27381,3.03354 7.32294,0.89785 z m 17.97817,4.80191 c -6.32226,-3.91999 -7.3144,-13.14801 -1.98643,-18.47598 7.45045,-7.45045 20.30652,-2.11263 20.19533,8.38506 -0.0972,9.17526 -10.44074,14.90741 -18.2089,10.09092 z M 731.75,468.2079 c 1.73293,-2.20451 1.56371,-6.75134 -0.32143,-8.63647 C 727.84203,455.98489 721,458.8667 721,463.96386 c 0,6.17965 7.04277,8.96009 10.75,4.24404 z m 24.88486,5.71952 c -3.17966,-2.50112 -3.29114,-3.50582 -0.55167,-4.97194 1.66475,-0.89095 2.47295,-0.76216 4.02363,0.64119 1.54773,1.40068 2.18863,1.50363 3.16681,0.50872 1.27397,-1.29577 0.86739,-1.75029 -5.72674,-6.40207 -4.60471,-3.24836 -2.83921,-9.8389 3.03032,-11.31206 2.77321,-0.69603 7.42279,1.84988 7.42279,4.06441 0,1.89968 -3.7614,2.98724 -5.45896,1.57839 -0.94672,-0.78571 -1.56266,-0.80809 -2.0168,-0.0733 -0.35959,0.58184 0.79582,1.84119 2.56759,2.79856 5.63701,3.04594 7.18565,5.09074 6.50932,8.59484 -1.20895,6.26368 -7.84274,8.60344 -12.96629,4.57325 z m 18.74918,0.63099 c -0.9377,-2.4436 0.0437,-5.0171 2.06135,-5.40567 2.64282,-0.50896 4.78166,2.5545 3.48068,4.9854 -1.17958,2.20407 -4.75352,2.47509 -5.54203,0.42027 z M 365,464 l 0,-11 3,0 3,0 0,11 0,11 -3,0 -3,0 0,-11 z m 31,0 0,-11 2.5,0 2.5,0 0,11 0,11 -2.5,0 -2.5,0 0,-11 z m 39,-8 0,-19 2.5,0 2.5,0 0,19 0,19 -2.5,0 -2.5,0 0,-19 z m 104,10.5 c 0,-5 -0.41176,-8.5 -1,-8.5 -0.55,0 -1,-1.125 -1,-2.5 0,-1.375 0.45,-2.5 1,-2.5 0.55,0 1,-1.8 1,-4 0,-3.77778 0.16667,-4 3,-4 2.83333,0 3,0.22222 3,4 0,3.33333 0.33333,4 2,4 1.46667,0 2,0.66667 2,2.5 0,1.83333 -0.53333,2.5 -2,2.5 -1.84314,0 -2,0.66667 -2,8.5 l 0,8.5 -3,0 -3,0 0,-8.5 z m 13,0 c 0,-5 -0.41176,-8.5 -1,-8.5 -0.55,0 -1,-1.125 -1,-2.5 0,-1.375 0.45,-2.5 1,-2.5 0.55,0 1,-1.8 1,-4 0,-3.6 0.25,-4 2.5,-4 2.20288,0 2.5,0.42709 2.5,3.59362 0,2.75262 0.46805,3.71602 2,4.11663 1.25796,0.32897 2,1.36402 2,2.78975 0,1.42573 -0.74204,2.46078 -2,2.78975 -1.79218,0.46866 -2,1.36401 -2,8.61663 0,7.96653 -0.0393,8.09362 -2.5,8.09362 -2.47059,0 -2.5,-0.1 -2.5,-8.5 z m 38,-2.5 0,-11 2.75,-0.011 c 1.5125,-0.006 4.325,-0.24736 6.25,-0.53625 4.83682,-0.72587 6.43741,0.49313 4.94586,3.76674 -0.81376,1.786 -1.71955,2.39096 -3.0565,2.04134 C 597.26045,457.31184 596,459.72522 596,467.62244 l 0,7.37756 -3,0 -3,0 0,-11 z m 73,-8 0,-19 3,0 3,0 0,8.44798 0,8.44798 3.0308,-1.05654 c 4.22698,-1.47353 8.52092,0.4359 9.9043,4.40424 0.58569,1.68013 1.0649,6.36264 1.0649,10.40556 l 0,7.35078 -3,0 -3,0 0,-7.96482 c 0,-6.91058 -0.26169,-8.10486 -1.97708,-9.02291 -1.57032,-0.84041 -2.39328,-0.64191 -4,0.96481 C 669.37768,460.62232 669,462.3069 669,468 l 0,7 -3,0 -3,0 0,-19 z m 81,0 0,-19 3,0 3,0 0,19 0,19 -3,0 -3,0 0,-19 z m -377.75,-8.66228 c -1.84877,-0.746 -1.51679,-5.08904 0.47418,-6.20324 C 369.00514,439.85799 372,441.48462 372,444 c 0,1.56022 -2.86998,4.24967 -4.18426,3.92105 -0.17366,-0.0434 -0.87824,-0.30592 -1.56574,-0.58333 z M 396.2,446.8 c -2.98558,-2.98558 0.32571,-7.65938 4.02418,-5.68002 C 403.17201,442.69761 401.8432,448 398.5,448 c -0.605,0 -1.64,-0.54 -2.3,-1.2 z M 281.25988,411.25 c -2.21661,-4.8125 -4.33197,-9.74601 -4.7008,-10.96336 -0.49194,-1.62368 1.58734,-6.81881 7.8046,-19.5 9.951,-20.29679 43.90203,-94.96831 49.34853,-108.53664 0.39907,-0.99416 -16.97355,-1.25 -84.87954,-1.25 l -85.3813,0 -4.71912,-9.5 -4.71911,-9.5 104.56082,0 104.56082,0 -0.65886,2.07587 c -0.36237,1.14173 -2.23861,5.52923 -4.16943,9.75 -1.93082,4.22077 -11.52586,25.67413 -21.32233,47.67413 -9.79646,22 -21.22554,47.346 -25.39795,56.32444 C 307.41379,376.80288 304,384.3788 304,384.65981 304,385.87362 286.59444,420 285.97536,420 c -0.37691,0 -2.49888,-3.9375 -4.71548,-8.75 z M 436,326 l 0,-49 9.09362,0 c 7.9409,0 9.15373,0.22988 9.56786,1.81351 0.44328,1.69511 0.79778,1.65338 5.43031,-0.63923 3.84025,-1.90052 6.49068,-2.44312 11.77231,-2.41006 9.41806,0.059 15.83532,2.95605 22.08842,9.97187 15.4913,17.38085 10.26169,47.54841 -9.80335,56.55168 -7.00443,3.14291 -17.09667,2.98039 -23.89932,-0.38486 L 455,339.30582 l 0,17.84709 0,17.84709 -9.5,0 -9.5,0 0,-49 z m 39.63298,0.36987 C 480.67717,323.97625 484,317.72541 484,310.63002 c 0,-7.01051 -1.74573,-11.39684 -5.94075,-14.92671 C 475.39091,293.45805 473.88151,293 469.15112,293 c -10.28559,0 -15.81984,7.07824 -14.94886,19.11941 0.87738,12.1297 11.29783,19.05883 21.43072,14.25046 z M 514,326 l 0,-49 9.09362,0 c 7.9409,0 9.15373,0.22988 9.56786,1.81351 0.44328,1.69511 0.79778,1.65338 5.43031,-0.63923 3.84025,-1.90052 6.49068,-2.44312 11.77231,-2.41006 9.41806,0.059 15.83532,2.95605 22.08842,9.97187 15.4913,17.38085 10.26169,47.54841 -9.80335,56.55168 -7.00443,3.14291 -17.09667,2.98039 -23.89932,-0.38486 L 533,339.30582 l 0,17.84709 0,17.84709 -9.5,0 -9.5,0 0,-49 z m 39.63298,0.36987 C 558.67717,323.97625 562,317.72541 562,310.63002 c 0,-7.01051 -1.74573,-11.39684 -5.94075,-14.92671 C 553.39091,293.45805 551.88151,293 547.15112,293 c -10.28559,0 -15.81984,7.07824 -14.94886,19.11941 0.87738,12.1297 11.29783,19.05883 21.43072,14.25046 z m 60.10149,17.59949 C 599.06401,340.28937 589.8005,327.41748 589.6476,310.5 589.48497,292.50578 599.4785,278.96884 615,276.15843 c 6.53101,-1.18254 13.78881,-0.0701 18.48713,2.83362 C 637.53101,281.4913 638,281.49213 638,279 c 0,-1.85185 0.66667,-2 9,-2 l 9,0 0,33 0,33 -9,0 c -8.25975,0 -9,-0.16056 -9,-1.95212 0,-1.8596 -0.22902,-1.8333 -4.83225,0.55494 -5.42272,2.81341 -13.65518,3.81594 -19.43328,2.36654 z m 15.73136,-17.39064 c 1.91146,-0.79866 4.58057,-3.20282 6.09289,-5.48808 5.28366,-7.98416 2.85835,-22.0502 -4.55727,-26.43071 -3.83547,-2.26567 -11.69906,-2.14174 -15.61494,0.24609 -6.86188,4.18424 -9.33706,15.80913 -5.13651,24.12402 4.01146,7.94058 11.36457,10.82915 19.21583,7.54868 z m 110.26864,17.396 C 724.4241,340.11241 715.02374,327.18788 715.02374,310 c 0,-10.30168 3.42266,-19.37973 9.65726,-25.61434 10.93705,-10.93704 29.74867,-11.78709 42.67416,-1.92833 6.82624,5.20662 12.05994,20.08964 10.82842,30.79267 -0.30693,2.66745 -0.50204,2.75046 -6.5,2.76542 l -6.18358,0.0154 6.5,3.63752 c 3.575,2.00064 6.65359,3.75978 6.84131,3.90922 1.04892,0.835 -1.64884,5.18065 -6.40586,10.3188 -3.48627,3.76559 -7.23012,6.62938 -10.51271,8.04151 -5.78531,2.48877 -16.49838,3.47221 -22.18827,2.03683 z m 13.62244,-17.35049 C 756.37496,325.36321 763,318.59459 763,316.77216 763,316.34747 756.7,316 749,316 c -12.99591,0 -14,0.13377 -14,1.86514 0,2.6678 3.80849,7.14309 7.41519,8.71345 3.98684,1.73587 6.86767,1.74789 10.94172,0.0456 z M 758,298.56809 C 758,295.86702 752.49989,293 747.31814,293 c -5.09431,0 -8.54352,1.68409 -10.34559,5.05128 C 735.96807,299.92818 736.33632,300 746.96482,300 755.87397,300 758,299.72413 758,298.56809 Z M 670,310 l 0,-33 8.8,0 c 5.33212,0 9.25619,0.45619 9.95762,1.15762 0.8214,0.8214 1.53297,0.8498 2.45,0.0978 0.71081,-0.58291 3.23093,-1.5782 5.60026,-2.21175 3.47638,-0.92956 5.31008,-0.86042 9.5,0.35819 9.4439,2.74669 9.5318,2.97253 4.81112,12.36149 l -4.091,8.1366 -4.38907,-1.94149 c -3.55016,-1.5704 -4.97089,-1.73867 -7.4331,-0.88034 C 689.70912,295.99425 689,299.23065 689,322.40113 L 689,343 l -9.5,0 -9.5,0 0,-33 z m 120,0 0,-33 9,0 c 7.54386,0 9,0.25617 9,1.58333 0,0.87084 0.3375,1.40961 0.75,1.19727 6.14137,-3.1613 9.51033,-4.08464 14.81848,-4.06138 7.6523,0.0335 14.22727,2.83537 17.87429,7.61685 C 846.32418,289.73594 847,294.15318 847,319.65893 L 847,343 l -8.87104,0 -8.87103,0 -0.44115,-22.38888 c -0.49415,-25.07879 -0.96706,-26.96587 -6.97894,-27.84823 -5.27202,-0.77377 -9.62003,0.93159 -11.55917,4.53367 -1.43794,2.67108 -1.78711,6.73488 -2.10107,24.45344 l -0.37653,21.25 -8.90053,0 -8.90054,0 0,-33 z m 71,9.06642 0,-23.93358 -2.75,-0.31642 c -2.74084,-0.31537 -2.75096,-0.34558 -3.03893,-9.06642 l -0.28894,-8.75 3.00619,0 3.00618,0 0.28275,-11.25 0.28275,-11.25 9,0 9,0 0.28275,11.25 0.28275,11.25 4.46725,0 4.46725,0 0,9 0,9 -4.5,0 -4.5,0 0,24 0,24 -9.5,0 -9.5,0 0,-23.93358 z"
       id="path3501"
       inkscape:connector-curvature="0" />
    <path
       style="fill:#0d05fd"
       d="m 445,486.4529 c 0,-0.30091 1.83939,-3.89857 4.08754,-7.99481 l 4.08753,-7.4477 -5.01117,-9.0052 -5.01116,-9.00519 3.32817,0 c 3.00618,0 3.64003,0.55258 6.55157,5.71155 l 3.2234,5.71155 2.88809,-5.71155 C 461.78792,453.48282 462.31383,453 465.36525,453 l 3.33318,0 -8.59921,16.98855 c -8.46483,16.72304 -8.65001,16.98873 -11.84922,17 -1.7875,0.006 -3.25,-0.23475 -3.25,-0.53565 z m -99.94058,-10.79665 c -0.59466,-1.56407 -4.00131,-10.00518 -7.57031,-18.75802 C 333.9201,448.14538 331,440.73406 331,440.42862 c 0,-0.30543 1.44034,-0.41433 3.20076,-0.24198 3.06017,0.2996 3.38198,0.76662 7.3267,10.63276 2.26928,5.67566 4.50692,10.31939 4.97254,10.31939 0.46562,0 2.70326,-4.64373 4.97254,-10.31939 3.94472,-9.86614 4.26653,-10.33316 7.3267,-10.63276 1.76042,-0.17235 3.20076,-0.0319 3.20076,0.31204 0,0.7259 -13.82016,34.26535 -15.04062,36.50132 -0.64344,1.17883 -1.05024,0.89112 -1.89996,-1.34375 z M 377.3874,473.284 c -2.3576,-2.54389 -2.40583,-2.79736 -0.76112,-4 2.27493,-1.66346 3.1821,-1.61847 5.05109,0.25052 1.17564,1.17563 1.85798,1.26607 2.91757,0.38669 1.82678,-1.51609 1.06845,-2.54212 -3.66279,-4.95582 -3.27628,-1.67144 -3.93215,-2.514 -3.93215,-5.05146 0,-4.37596 1.5456,-6.65522 5.03232,-7.42103 5.10703,-1.12169 10.85413,4.18549 6.38822,5.89922 -0.86871,0.33335 -2.66871,0.33271 -4,-10e-4 -3.60492,-0.90478 -2.92505,0.99829 1.03051,2.88457 4.94682,2.35897 6.83842,5.5959 5.50516,9.4205 -1.96013,5.62283 -9.43503,7.04865 -13.56881,2.58823 z m 39.36697,2.14162 c -0.4101,-0.41262 -2.7726,-0.67355 -5.25,-0.57984 L 407,475.01615 407,456.00808 407,437 l 3,0 3,0 0,8.60699 c 0,7.81069 0.16191,8.53893 1.75,7.8714 5.71691,-2.40301 10.24468,-1.12801 13.30521,3.74668 2.81459,4.48299 2.22235,11.95191 -1.22072,15.39499 -2.46082,2.46081 -8.69753,4.19665 -10.08012,2.80556 z M 422,469 c 4.56939,-4.56939 1.28155,-11.83509 -5,-11.04933 -4.26715,0.53378 -5.55308,8.84811 -1.77749,11.49263 2.93731,2.05737 4.37057,1.96362 6.77749,-0.4433 z m 72.08582,6.0742 c -0.7778,-0.49234 -2.9153,-0.65158 -4.75,-0.35384 L 486,475.26168 486,456.13084 486,437 l 2.5,0 c 2.47303,0 2.5,0.0929 2.5,8.60699 0,7.81975 0.16006,8.53753 1.75,7.84762 0.9625,-0.41766 3.20871,-0.96459 4.99158,-1.21542 2.68919,-0.37832 3.83943,0.14182 6.75,3.05239 2.98378,2.98378 3.50842,4.18925 3.50842,8.06137 0,2.50412 -0.48835,5.62475 -1.08521,6.93473 -2.01913,4.43149 -9.17312,7.10067 -12.82897,4.78652 z m 5.97006,-5.91837 c 2.56903,-2.08027 3.08343,-7.07811 0.98834,-9.60255 -1.92939,-2.32477 -6.65122,-1.95246 -8.48752,0.66923 -2.28718,3.2654 -1.904,6.35914 1.07816,8.70491 3.21797,2.53126 3.56201,2.5435 6.42102,0.22841 z M 518.5,475.05464 c -3.60087,-1.47381 -5.77865,-4.89489 -6.23494,-9.79451 -1.43051,-15.3608 18.91615,-18.24285 21.385,-3.02913 l 0.59785,3.68411 -8.37396,0.29244 L 517.5,466.5 l 2.25,2.25 c 2.80506,2.80506 4.65973,2.84027 7.36027,0.13973 1.76507,-1.76507 2.50587,-1.93003 4.52857,-1.00842 2.27976,1.03873 2.32993,1.23672 0.87571,3.45614 -2.69083,4.10672 -8.98437,5.77601 -14.01455,3.71719 z m 8.5,-15.01946 c 0,-1.8661 -3.8658,-3.17737 -6,-2.03518 -3.19031,1.7074 -2.32858,3 2,3 2.2,0 4,-0.43417 4,-0.96482 z m 42.5,14.86144 c -5.20409,-3.011 -7.22318,-11.02054 -4.36144,-17.30138 C 566.29498,455.05718 571.40996,452 574.5,452 c 3.09004,0 8.20502,3.05718 9.36144,5.59524 0.62621,1.37438 1.13856,3.82769 1.13856,5.45181 l 0,2.95295 -7.5,0 c -7.94823,0 -9.1442,0.87657 -4.94762,3.62628 2.43067,1.59263 2.69464,1.56721 5.53544,-0.53309 3.08064,-2.27761 6.91218,-2.11138 6.91218,0.29988 0,4.31831 -10.87481,8.1796 -15.5,5.50355 z m 9.28183,-15.05112 c -0.7908,-2.37242 -4.59053,-2.82324 -6.9831,-0.82852 l -2.29873,1.91648 4.83333,0.0333 c 3.2208,0.0222 4.70495,-0.3519 4.4485,-1.12123 z m 43.85303,14.08192 c -3.17966,-2.50112 -3.29114,-3.50582 -0.55167,-4.97194 1.65395,-0.88517 2.46515,-0.76921 3.93698,0.56278 1.01959,0.92271 2.33216,1.38202 2.91682,1.02068 1.71217,-1.05818 1.22344,-3.35325 -0.85453,-4.01277 -6.95615,-2.20779 -9.26263,-8.66609 -4.4476,-12.45359 3.48656,-2.74253 6.50472,-2.61736 9.32699,0.38682 l 2.31049,2.45939 -2.60656,1.18763 c -2.04538,0.93194 -2.93587,0.91432 -4.13617,-0.0818 C 627.26832,456.9778 627,457.0279 627,458.31017 c 0,0.85528 0.86289,1.82893 1.91754,2.16366 6.91966,2.19621 9.16404,8.5355 4.62791,13.07162 -3.03642,3.03643 -7.34426,3.18724 -10.91059,0.38197 z m 22.68612,0.45929 c -4.0891,-2.01658 -6.73593,-7.44226 -5.96078,-12.21892 1.14178,-7.03601 9.30709,-11.80132 15.8898,-9.27337 2.31044,0.88728 2.75,1.64424 2.75,4.73582 0,3.59573 -0.0449,3.6391 -1.96686,1.89975 C 651.87363,455.76568 645,458.60255 645,464.08356 c 0,5.54382 5.61694,8.3151 10.11419,4.99013 L 658,466.94013 l 0,3.49475 c 0,5.48452 -5.86458,7.31241 -12.67902,3.95183 z m 48.77542,0.34855 c -12.08278,-6.20958 -5.86149,-24.78978 7.46346,-22.29001 5.72074,1.07322 9.44014,5.57977 9.44014,11.438 0,2.61495 -0.68712,5.65274 -1.5607,6.89996 -3.27172,4.67102 -10.38078,6.50218 -15.3429,3.95205 z m 8.68109,-5.29196 c 2.56025,-1.79327 3.02811,-6.95931 0.89452,-9.87717 -1.86764,-2.55415 -6.63641,-2.32832 -8.86158,0.41965 -2.46807,3.04794 -2.27281,5.64274 0.64412,8.55967 2.86022,2.86023 4.27381,3.03354 7.32294,0.89785 z m 17.97817,4.80191 c -6.32226,-3.91999 -7.3144,-13.14801 -1.98643,-18.47598 7.45045,-7.45045 20.30652,-2.11263 20.19533,8.38506 -0.0972,9.17526 -10.44074,14.90741 -18.2089,10.09092 z M 731.75,468.2079 c 1.73293,-2.20451 1.56371,-6.75134 -0.32143,-8.63647 C 727.84203,455.98489 721,458.8667 721,463.96386 c 0,6.17965 7.04277,8.96009 10.75,4.24404 z m 24.88486,5.71952 c -3.17966,-2.50112 -3.29114,-3.50582 -0.55167,-4.97194 1.66475,-0.89095 2.47295,-0.76216 4.02363,0.64119 1.54773,1.40068 2.18863,1.50363 3.16681,0.50872 1.27397,-1.29577 0.86739,-1.75029 -5.72674,-6.40207 -4.60471,-3.24836 -2.83921,-9.8389 3.03032,-11.31206 2.77321,-0.69603 7.42279,1.84988 7.42279,4.06441 0,1.89968 -3.7614,2.98724 -5.45896,1.57839 -0.94672,-0.78571 -1.56266,-0.80809 -2.0168,-0.0733 -0.35959,0.58184 0.79582,1.84119 2.56759,2.79856 5.63701,3.04594 7.18565,5.09074 6.50932,8.59484 -1.20895,6.26368 -7.84274,8.60344 -12.96629,4.57325 z m 18.74918,0.63099 c -0.9377,-2.4436 0.0437,-5.0171 2.06135,-5.40567 2.64282,-0.50896 4.78166,2.5545 3.48068,4.9854 -1.17958,2.20407 -4.75352,2.47509 -5.54203,0.42027 z M 365,464 l 0,-11 3,0 3,0 0,11 0,11 -3,0 -3,0 0,-11 z m 31,0 0,-11 2.5,0 2.5,0 0,11 0,11 -2.5,0 -2.5,0 0,-11 z m 39,-8 0,-19 2.5,0 2.5,0 0,19 0,19 -2.5,0 -2.5,0 0,-19 z m 104,10.5 c 0,-5 -0.41176,-8.5 -1,-8.5 -0.55,0 -1,-1.125 -1,-2.5 0,-1.375 0.45,-2.5 1,-2.5 0.55,0 1,-1.8 1,-4 0,-3.77778 0.16667,-4 3,-4 2.83333,0 3,0.22222 3,4 0,3.33333 0.33333,4 2,4 1.46667,0 2,0.66667 2,2.5 0,1.83333 -0.53333,2.5 -2,2.5 -1.84314,0 -2,0.66667 -2,8.5 l 0,8.5 -3,0 -3,0 0,-8.5 z m 13,0 c 0,-5 -0.41176,-8.5 -1,-8.5 -0.55,0 -1,-1.125 -1,-2.5 0,-1.375 0.45,-2.5 1,-2.5 0.55,0 1,-1.8 1,-4 0,-3.6 0.25,-4 2.5,-4 2.20288,0 2.5,0.42709 2.5,3.59362 0,2.75262 0.46805,3.71602 2,4.11663 1.25796,0.32897 2,1.36402 2,2.78975 0,1.42573 -0.74204,2.46078 -2,2.78975 -1.79218,0.46866 -2,1.36401 -2,8.61663 0,7.96653 -0.0393,8.09362 -2.5,8.09362 -2.47059,0 -2.5,-0.1 -2.5,-8.5 z m 38,-2.5 0,-11 2.75,-0.011 c 1.5125,-0.006 4.325,-0.24736 6.25,-0.53625 4.83682,-0.72587 6.43741,0.49313 4.94586,3.76674 -0.81376,1.786 -1.71955,2.39096 -3.0565,2.04134 C 597.26045,457.31184 596,459.72522 596,467.62244 l 0,7.37756 -3,0 -3,0 0,-11 z m 73,-8 0,-19 3,0 3,0 0,8.44798 0,8.44798 3.0308,-1.05654 c 4.22698,-1.47353 8.52092,0.4359 9.9043,4.40424 0.58569,1.68013 1.0649,6.36264 1.0649,10.40556 l 0,7.35078 -3,0 -3,0 0,-7.96482 c 0,-6.91058 -0.26169,-8.10486 -1.97708,-9.02291 -1.57032,-0.84041 -2.39328,-0.64191 -4,0.96481 C 669.37768,460.62232 669,462.3069 669,468 l 0,7 -3,0 -3,0 0,-19 z m 81,0 0,-19 3,0 3,0 0,19 0,19 -3,0 -3,0 0,-19 z m -377.75,-8.66228 c -1.84877,-0.746 -1.51679,-5.08904 0.47418,-6.20324 C 369.00514,439.85799 372,441.48462 372,444 c 0,1.56022 -2.86998,4.24967 -4.18426,3.92105 -0.17366,-0.0434 -0.87824,-0.30592 -1.56574,-0.58333 z M 396.2,446.8 c -2.98558,-2.98558 0.32571,-7.65938 4.02418,-5.68002 C 403.17201,442.69761 401.8432,448 398.5,448 c -0.605,0 -1.64,-0.54 -2.3,-1.2 z M 281.25988,411.25 c -2.21661,-4.8125 -4.33197,-9.74601 -4.7008,-10.96336 -0.49194,-1.62368 1.58734,-6.81881 7.8046,-19.5 9.951,-20.29679 43.90203,-94.96831 49.34853,-108.53664 0.39907,-0.99416 -16.97355,-1.25 -84.87954,-1.25 l -85.3813,0 -4.71912,-9.5 -4.71911,-9.5 104.56082,0 104.56082,0 -0.65886,2.07587 c -0.36237,1.14173 -2.23861,5.52923 -4.16943,9.75 -1.93082,4.22077 -11.52586,25.67413 -21.32233,47.67413 -9.79646,22 -21.22554,47.346 -25.39795,56.32444 C 307.41379,376.80288 304,384.3788 304,384.65981 304,385.87362 286.59444,420 285.97536,420 c -0.37691,0 -2.49888,-3.9375 -4.71548,-8.75 z"
       id="path3499"
       inkscape:connector-curvature="0" />
  </g>
</svg>
