<?xml version="1.0" encoding="UTF-8" standalone="no"?>
<svg
   xmlns:dc="http://purl.org/dc/elements/1.1/"
   xmlns:cc="http://creativecommons.org/ns#"
   xmlns:rdf="http://www.w3.org/1999/02/22-rdf-syntax-ns#"
   xmlns:svg="http://www.w3.org/2000/svg"
   xmlns="http://www.w3.org/2000/svg"
   viewBox="0 0 1024 768"
   height="768"
   width="1024"
   version="1.1"
   id="svg3749">
  <metadata
     id="metadata3755">
    <rdf:RDF>
      <cc:Work
         rdf:about="">
        <dc:format>image/svg+xml</dc:format>
        <dc:type
           rdf:resource="http://purl.org/dc/dcmitype/StillImage" />
        <dc:title></dc:title>
      </cc:Work>
    </rdf:RDF>
  </metadata>
  <defs
     id="defs3753" />
  <g
     transform="translate(-5.9555301,15.881409)"
     id="g3759">
    <path
       id="path3765"
       d="m 255.54587,476.75 c -0.78197,-1.7875 -5.9569,-13.29381 -11.49984,-25.56957 -5.54294,-12.27576 -9.77633,-22.80779 -9.40754,-23.40451 0.36879,-0.59671 0.2524,-0.82652 -0.25865,-0.51067 -0.51105,0.31584 -12.58043,-24.92713 -26.82086,-56.0955 -14.24043,-31.16836 -27.63317,-60.24013 -29.76165,-64.60392 -2.12848,-4.3638 -3.63377,-8.54967 -3.3451,-9.30194 0.28867,-0.75227 0.15742,-1.14067 -0.29168,-0.86311 C 173.47993,296.82142 165,279.40434 165,277.58576 165,277.26359 201.225,277 245.5,277 c 44.275,0 80.5,0.38707 80.5,0.86015 0,0.47309 -1.79623,4.74809 -3.99162,9.5 L 318.01676,296 l -60.94377,0 -60.94377,0 4.01882,8.75 c 3.79543,8.26361 8.67211,18.6108 16.44357,34.88947 1.87461,3.92671 3.40839,7.41754 3.40839,7.75739 0,0.55424 4.77221,10.87331 14.38411,31.10314 1.82927,3.85 5.52065,11.95 8.20306,18 2.68242,6.05 5.11437,11.225 5.40435,11.5 0.28997,0.275 1.57288,3.2 2.85091,6.5 1.27803,3.3 3.35695,8.25 4.61983,11 1.26288,2.75 2.63615,6.125 3.05172,7.5 0.41557,1.375 1.06752,2.725 1.44877,3 0.86427,0.62339 8.03725,17.34263 8.03725,18.73371 0,0.56007 2.475,6.20539 5.5,12.54516 3.025,6.33977 5.5,11.79557 5.5,12.12399 C 279,479.73129 274.04272,480 267.98382,480 l -11.01618,0 -1.42177,-3.25 z m 18.48118,-24.5 c -6.81795,-15.2625 -13.92391,-30.9 -15.79102,-34.75 -1.86711,-3.85 -13.29944,-29.05 -25.40517,-56 -12.10573,-26.95 -23.35305,-51.3625 -24.99403,-54.25 l -2.98361,-5.25 10.90889,0 10.90888,0 9.73124,22.25 c 5.35219,12.2375 10.68247,24.5 11.84508,27.25 1.1626,2.75 6.57977,14.225 12.03814,25.5 5.45837,11.275 11.48398,24.325 13.39024,29 7.86183,19.28072 12.73955,29.97777 13.3426,29.26087 0.35201,-0.41848 3.48222,-7.06087 6.95601,-14.76087 10.80234,-23.94446 16.15868,-35.63485 21.07643,-46 2.60948,-5.5 5.6562,-12.025 6.77048,-14.5 6.75462,-15.00305 23.77705,-51.28739 34.95092,-74.5 7.14836,-14.85 13.701,-28.6875 14.56142,-30.75 l 1.5644,-3.75 8.87618,0 8.87618,0 15.82061,35.25 c 8.70133,19.3875 17.9828,40.0875 20.62548,46 l 4.80488,10.75 -10.30305,0 -10.30304,0 -5.26339,-12.02119 -5.26338,-12.02118 -19.04278,0.27118 L 362.68286,319.5 350.28969,346 c -6.81625,14.575 -15.93003,34.15 -20.25285,43.5 -4.32282,9.35 -10.29467,21.95 -13.27078,28 -2.97611,6.05 -10.7675,22.5875 -17.31418,36.75 -6.54669,14.1625 -12.15631,25.75 -12.46581,25.75 -0.30951,0 -6.14107,-12.4875 -12.95902,-27.75 z m 117.59881,-154.5 c -6.42205,-14.89788 -8.79682,-20.25429 -9.12542,-20.5829 -0.34979,-0.34979 -2.59981,4.24685 -9.09619,18.5829 l -2.37903,5.25 11.00081,0 11.00081,0 -1.40098,-3.25 z m -110.36598,113.5 c -2.21661,-4.8125 -4.33197,-9.74601 -4.7008,-10.96336 -0.49194,-1.62368 1.58734,-6.81881 7.8046,-19.5 9.951,-20.29679 43.90203,-94.96831 49.34853,-108.53664 0.39907,-0.99416 -16.97355,-1.25 -84.87954,-1.25 l -85.3813,0 -4.71912,-9.5 -4.71911,-9.5 104.56082,0 104.56082,0 -0.65886,2.07587 c -0.36237,1.14173 -2.23861,5.52923 -4.16943,9.75 -1.93082,4.22077 -11.52586,25.67413 -21.32233,47.67413 -9.79646,22 -21.22554,47.346 -25.39795,56.32444 C 307.41379,376.80288 304,384.3788 304,384.65981 304,385.87362 286.59444,420 285.97536,420 c -0.37691,0 -2.49888,-3.9375 -4.71548,-8.75 z M 436,326 l 0,-49 9.09362,0 c 7.9409,0 9.15373,0.22988 9.56786,1.81351 0.44328,1.69511 0.79778,1.65338 5.43031,-0.63923 3.84025,-1.90052 6.49068,-2.44312 11.77231,-2.41006 9.41806,0.059 15.83532,2.95605 22.08842,9.97187 15.4913,17.38085 10.26169,47.54841 -9.80335,56.55168 -7.00443,3.14291 -17.09667,2.98039 -23.89932,-0.38486 L 455,339.30582 l 0,17.84709 0,17.84709 -9.5,0 -9.5,0 0,-49 z m 39.63298,0.36987 C 480.67717,323.97625 484,317.72541 484,310.63002 c 0,-7.01051 -1.74573,-11.39684 -5.94075,-14.92671 C 475.39091,293.45805 473.88151,293 469.15112,293 c -10.28559,0 -15.81984,7.07824 -14.94886,19.11941 0.87738,12.1297 11.29783,19.05883 21.43072,14.25046 z M 514,326 l 0,-49 9.09362,0 c 7.9409,0 9.15373,0.22988 9.56786,1.81351 0.44328,1.69511 0.79778,1.65338 5.43031,-0.63923 3.84025,-1.90052 6.49068,-2.44312 11.77231,-2.41006 9.41806,0.059 15.83532,2.95605 22.08842,9.97187 15.4913,17.38085 10.26169,47.54841 -9.80335,56.55168 -7.00443,3.14291 -17.09667,2.98039 -23.89932,-0.38486 L 533,339.30582 l 0,17.84709 0,17.84709 -9.5,0 -9.5,0 0,-49 z m 39.63298,0.36987 C 558.67717,323.97625 562,317.72541 562,310.63002 c 0,-7.01051 -1.74573,-11.39684 -5.94075,-14.92671 C 553.39091,293.45805 551.88151,293 547.15112,293 c -10.28559,0 -15.81984,7.07824 -14.94886,19.11941 0.87738,12.1297 11.29783,19.05883 21.43072,14.25046 z m 60.10149,17.59949 C 599.06401,340.28937 589.8005,327.41748 589.6476,310.5 589.48497,292.50578 599.4785,278.96884 615,276.15843 c 6.53101,-1.18254 13.78881,-0.0701 18.48713,2.83362 C 637.53101,281.4913 638,281.49213 638,279 c 0,-1.85185 0.66667,-2 9,-2 l 9,0 0,33 0,33 -9,0 c -8.25975,0 -9,-0.16056 -9,-1.95212 0,-1.8596 -0.22902,-1.8333 -4.83225,0.55494 -5.42272,2.81341 -13.65518,3.81594 -19.43328,2.36654 z m 15.73136,-17.39064 c 1.91146,-0.79866 4.58057,-3.20282 6.09289,-5.48808 5.28366,-7.98416 2.85835,-22.0502 -4.55727,-26.43071 -3.83547,-2.26567 -11.69906,-2.14174 -15.61494,0.24609 -6.86188,4.18424 -9.33706,15.80913 -5.13651,24.12402 4.01146,7.94058 11.36457,10.82915 19.21583,7.54868 z m 110.26864,17.396 C 724.4241,340.11241 715.02374,327.18788 715.02374,310 c 0,-10.30168 3.42266,-19.37973 9.65726,-25.61434 10.93705,-10.93704 29.74867,-11.78709 42.67416,-1.92833 6.82624,5.20662 12.05994,20.08964 10.82842,30.79267 -0.30693,2.66745 -0.50204,2.75046 -6.5,2.76542 l -6.18358,0.0154 6.5,3.63752 c 3.575,2.00064 6.65359,3.75978 6.84131,3.90922 1.04892,0.835 -1.64884,5.18065 -6.40586,10.3188 -3.48627,3.76559 -7.23012,6.62938 -10.51271,8.04151 -5.78531,2.48877 -16.49838,3.47221 -22.18827,2.03683 z m 13.62244,-17.35049 C 756.37496,325.36321 763,318.59459 763,316.77216 763,316.34747 756.7,316 749,316 c -12.99591,0 -14,0.13377 -14,1.86514 0,2.6678 3.80849,7.14309 7.41519,8.71345 3.98684,1.73587 6.86767,1.74789 10.94172,0.0456 z M 758,298.56809 C 758,295.86702 752.49989,293 747.31814,293 c -5.09431,0 -8.54352,1.68409 -10.34559,5.05128 C 735.96807,299.92818 736.33632,300 746.96482,300 755.87397,300 758,299.72413 758,298.56809 Z M 670,310 l 0,-33 8.8,0 c 5.33212,0 9.25619,0.45619 9.95762,1.15762 0.8214,0.8214 1.53297,0.8498 2.45,0.0978 0.71081,-0.58291 3.23093,-1.5782 5.60026,-2.21175 3.47638,-0.92956 5.31008,-0.86042 9.5,0.35819 9.4439,2.74669 9.5318,2.97253 4.81112,12.36149 l -4.091,8.1366 -4.38907,-1.94149 c -3.55016,-1.5704 -4.97089,-1.73867 -7.4331,-0.88034 C 689.70912,295.99425 689,299.23065 689,322.40113 L 689,343 l -9.5,0 -9.5,0 0,-33 z m 120,0 0,-33 9,0 c 7.54386,0 9,0.25617 9,1.58333 0,0.87084 0.3375,1.40961 0.75,1.19727 6.14137,-3.1613 9.51033,-4.08464 14.81848,-4.06138 7.6523,0.0335 14.22727,2.83537 17.87429,7.61685 C 846.32418,289.73594 847,294.15318 847,319.65893 L 847,343 l -8.87104,0 -8.87103,0 -0.44115,-22.38888 c -0.49415,-25.07879 -0.96706,-26.96587 -6.97894,-27.84823 -5.27202,-0.77377 -9.62003,0.93159 -11.55917,4.53367 -1.43794,2.67108 -1.78711,6.73488 -2.10107,24.45344 l -0.37653,21.25 -8.90053,0 -8.90054,0 0,-33 z m 71,9.06642 0,-23.93358 -2.75,-0.31642 c -2.74084,-0.31537 -2.75096,-0.34558 -3.03893,-9.06642 l -0.28894,-8.75 3.00619,0 3.00618,0 0.28275,-11.25 0.28275,-11.25 9,0 9,0 0.28275,11.25 0.28275,11.25 4.46725,0 4.46725,0 0,9 0,9 -4.5,0 -4.5,0 0,24 0,24 -9.5,0 -9.5,0 0,-23.93358 z"
       style="fill:#3ce7fd" />
    <path
       id="path3763"
       d="m 274.02705,452.25 c -6.81795,-15.2625 -13.92391,-30.9 -15.79102,-34.75 -1.86711,-3.85 -13.29944,-29.05 -25.40517,-56 -12.10573,-26.95 -23.35305,-51.3625 -24.99403,-54.25 l -2.98361,-5.25 10.90889,0 10.90888,0 9.73124,22.25 c 5.35219,12.2375 10.68247,24.5 11.84508,27.25 1.1626,2.75 6.57977,14.225 12.03814,25.5 5.45837,11.275 11.48398,24.325 13.39024,29 7.86183,19.28072 12.73955,29.97777 13.3426,29.26087 0.35201,-0.41848 3.48222,-7.06087 6.95601,-14.76087 10.80234,-23.94446 16.15868,-35.63485 21.07643,-46 2.60948,-5.5 5.6562,-12.025 6.77048,-14.5 6.75462,-15.00305 23.77705,-51.28739 34.95092,-74.5 7.14836,-14.85 13.701,-28.6875 14.56142,-30.75 l 1.5644,-3.75 8.87618,0 8.87618,0 15.82061,35.25 c 8.70133,19.3875 17.9828,40.0875 20.62548,46 l 4.80488,10.75 -10.30305,0 -10.30304,0 -5.26339,-12.02119 -5.26338,-12.02118 -19.04278,0.27118 L 362.68286,319.5 350.28969,346 c -6.81625,14.575 -15.93003,34.15 -20.25285,43.5 -4.32282,9.35 -10.29467,21.95 -13.27078,28 -2.97611,6.05 -10.7675,22.5875 -17.31418,36.75 -6.54669,14.1625 -12.15631,25.75 -12.46581,25.75 -0.30951,0 -6.14107,-12.4875 -12.95902,-27.75 z m 117.59881,-154.5 c -6.42205,-14.89788 -8.79682,-20.25429 -9.12542,-20.5829 -0.34979,-0.34979 -2.59981,4.24685 -9.09619,18.5829 l -2.37903,5.25 11.00081,0 11.00081,0 -1.40098,-3.25 z m -110.36598,113.5 c -2.21661,-4.8125 -4.33197,-9.74601 -4.7008,-10.96336 -0.49194,-1.62368 1.58734,-6.81881 7.8046,-19.5 9.951,-20.29679 43.90203,-94.96831 49.34853,-108.53664 0.39907,-0.99416 -16.97355,-1.25 -84.87954,-1.25 l -85.3813,0 -4.71912,-9.5 -4.71911,-9.5 104.56082,0 104.56082,0 -0.65886,2.07587 c -0.36237,1.14173 -2.23861,5.52923 -4.16943,9.75 -1.93082,4.22077 -11.52586,25.67413 -21.32233,47.67413 -9.79646,22 -21.22554,47.346 -25.39795,56.32444 C 307.41379,376.80288 304,384.3788 304,384.65981 304,385.87362 286.59444,420 285.97536,420 c -0.37691,0 -2.49888,-3.9375 -4.71548,-8.75 z M 436,326 l 0,-49 9.09362,0 c 7.9409,0 9.15373,0.22988 9.56786,1.81351 0.44328,1.69511 0.79778,1.65338 5.43031,-0.63923 3.84025,-1.90052 6.49068,-2.44312 11.77231,-2.41006 9.41806,0.059 15.83532,2.95605 22.08842,9.97187 15.4913,17.38085 10.26169,47.54841 -9.80335,56.55168 -7.00443,3.14291 -17.09667,2.98039 -23.89932,-0.38486 L 455,339.30582 l 0,17.84709 0,17.84709 -9.5,0 -9.5,0 0,-49 z m 39.63298,0.36987 C 480.67717,323.97625 484,317.72541 484,310.63002 c 0,-7.01051 -1.74573,-11.39684 -5.94075,-14.92671 C 475.39091,293.45805 473.88151,293 469.15112,293 c -10.28559,0 -15.81984,7.07824 -14.94886,19.11941 0.87738,12.1297 11.29783,19.05883 21.43072,14.25046 z M 514,326 l 0,-49 9.09362,0 c 7.9409,0 9.15373,0.22988 9.56786,1.81351 0.44328,1.69511 0.79778,1.65338 5.43031,-0.63923 3.84025,-1.90052 6.49068,-2.44312 11.77231,-2.41006 9.41806,0.059 15.83532,2.95605 22.08842,9.97187 15.4913,17.38085 10.26169,47.54841 -9.80335,56.55168 -7.00443,3.14291 -17.09667,2.98039 -23.89932,-0.38486 L 533,339.30582 l 0,17.84709 0,17.84709 -9.5,0 -9.5,0 0,-49 z m 39.63298,0.36987 C 558.67717,323.97625 562,317.72541 562,310.63002 c 0,-7.01051 -1.74573,-11.39684 -5.94075,-14.92671 C 553.39091,293.45805 551.88151,293 547.15112,293 c -10.28559,0 -15.81984,7.07824 -14.94886,19.11941 0.87738,12.1297 11.29783,19.05883 21.43072,14.25046 z m 60.10149,17.59949 C 599.06401,340.28937 589.8005,327.41748 589.6476,310.5 589.48497,292.50578 599.4785,278.96884 615,276.15843 c 6.53101,-1.18254 13.78881,-0.0701 18.48713,2.83362 C 637.53101,281.4913 638,281.49213 638,279 c 0,-1.85185 0.66667,-2 9,-2 l 9,0 0,33 0,33 -9,0 c -8.25975,0 -9,-0.16056 -9,-1.95212 0,-1.8596 -0.22902,-1.8333 -4.83225,0.55494 -5.42272,2.81341 -13.65518,3.81594 -19.43328,2.36654 z m 15.73136,-17.39064 c 1.91146,-0.79866 4.58057,-3.20282 6.09289,-5.48808 5.28366,-7.98416 2.85835,-22.0502 -4.55727,-26.43071 -3.83547,-2.26567 -11.69906,-2.14174 -15.61494,0.24609 -6.86188,4.18424 -9.33706,15.80913 -5.13651,24.12402 4.01146,7.94058 11.36457,10.82915 19.21583,7.54868 z m 110.26864,17.396 C 724.4241,340.11241 715.02374,327.18788 715.02374,310 c 0,-10.30168 3.42266,-19.37973 9.65726,-25.61434 10.93705,-10.93704 29.74867,-11.78709 42.67416,-1.92833 6.82624,5.20662 12.05994,20.08964 10.82842,30.79267 -0.30693,2.66745 -0.50204,2.75046 -6.5,2.76542 l -6.18358,0.0154 6.5,3.63752 c 3.575,2.00064 6.65359,3.75978 6.84131,3.90922 1.04892,0.835 -1.64884,5.18065 -6.40586,10.3188 -3.48627,3.76559 -7.23012,6.62938 -10.51271,8.04151 -5.78531,2.48877 -16.49838,3.47221 -22.18827,2.03683 z m 13.62244,-17.35049 C 756.37496,325.36321 763,318.59459 763,316.77216 763,316.34747 756.7,316 749,316 c -12.99591,0 -14,0.13377 -14,1.86514 0,2.6678 3.80849,7.14309 7.41519,8.71345 3.98684,1.73587 6.86767,1.74789 10.94172,0.0456 z M 758,298.56809 C 758,295.86702 752.49989,293 747.31814,293 c -5.09431,0 -8.54352,1.68409 -10.34559,5.05128 C 735.96807,299.92818 736.33632,300 746.96482,300 755.87397,300 758,299.72413 758,298.56809 Z M 670,310 l 0,-33 8.8,0 c 5.33212,0 9.25619,0.45619 9.95762,1.15762 0.8214,0.8214 1.53297,0.8498 2.45,0.0978 0.71081,-0.58291 3.23093,-1.5782 5.60026,-2.21175 3.47638,-0.92956 5.31008,-0.86042 9.5,0.35819 9.4439,2.74669 9.5318,2.97253 4.81112,12.36149 l -4.091,8.1366 -4.38907,-1.94149 c -3.55016,-1.5704 -4.97089,-1.73867 -7.4331,-0.88034 C 689.70912,295.99425 689,299.23065 689,322.40113 L 689,343 l -9.5,0 -9.5,0 0,-33 z m 120,0 0,-33 9,0 c 7.54386,0 9,0.25617 9,1.58333 0,0.87084 0.3375,1.40961 0.75,1.19727 6.14137,-3.1613 9.51033,-4.08464 14.81848,-4.06138 7.6523,0.0335 14.22727,2.83537 17.87429,7.61685 C 846.32418,289.73594 847,294.15318 847,319.65893 L 847,343 l -8.87104,0 -8.87103,0 -0.44115,-22.38888 c -0.49415,-25.07879 -0.96706,-26.96587 -6.97894,-27.84823 -5.27202,-0.77377 -9.62003,0.93159 -11.55917,4.53367 -1.43794,2.67108 -1.78711,6.73488 -2.10107,24.45344 l -0.37653,21.25 -8.90053,0 -8.90054,0 0,-33 z m 71,9.06642 0,-23.93358 -2.75,-0.31642 c -2.74084,-0.31537 -2.75096,-0.34558 -3.03893,-9.06642 l -0.28894,-8.75 3.00619,0 3.00618,0 0.28275,-11.25 0.28275,-11.25 9,0 9,0 0.28275,11.25 0.28275,11.25 4.46725,0 4.46725,0 0,9 0,9 -4.5,0 -4.5,0 0,24 0,24 -9.5,0 -9.5,0 0,-23.93358 z"
       style="fill:#fd8a07" />
    <path
       id="path3761"
       d="m 281.25988,411.25 c -2.21661,-4.8125 -4.33197,-9.74601 -4.7008,-10.96336 -0.49194,-1.62368 1.58734,-6.81881 7.8046,-19.5 9.951,-20.29679 43.90203,-94.96831 49.34853,-108.53664 0.39907,-0.99416 -16.97355,-1.25 -84.87954,-1.25 l -85.3813,0 -4.71912,-9.5 -4.71911,-9.5 104.56082,0 104.56082,0 -0.65886,2.07587 c -0.36237,1.14173 -2.23861,5.52923 -4.16943,9.75 -1.93082,4.22077 -11.52586,25.67413 -21.32233,47.67413 -9.79646,22 -21.22554,47.346 -25.39795,56.32444 C 307.41379,376.80288 304,384.3788 304,384.65981 304,385.87362 286.59444,420 285.97536,420 c -0.37691,0 -2.49888,-3.9375 -4.71548,-8.75 z"
       style="fill:#0803fe" />
  </g>
</svg>
