<?xml version="1.0" encoding="UTF-8" standalone="no"?>
<svg
   xmlns:dc="http://purl.org/dc/elements/1.1/"
   xmlns:cc="http://creativecommons.org/ns#"
   xmlns:rdf="http://www.w3.org/1999/02/22-rdf-syntax-ns#"
   xmlns:svg="http://www.w3.org/2000/svg"
   xmlns="http://www.w3.org/2000/svg"
   xmlns:sodipodi="http://sodipodi.sourceforge.net/DTD/sodipodi-0.dtd"
   xmlns:inkscape="http://www.inkscape.org/namespaces/inkscape"
   viewBox="0 0 236.98686 228"
   height="228"
   width="236.98686"
   version="1.1"
   id="svg3613"
   inkscape:version="0.91 r13725"
   sodipodi:docname="apparent_logo.svg">
  <sodipodi:namedview
     pagecolor="#ffffff"
     bordercolor="#666666"
     borderopacity="1"
     objecttolerance="10"
     gridtolerance="10"
     guidetolerance="10"
     inkscape:pageopacity="0"
     inkscape:pageshadow="2"
     inkscape:window-width="1388"
     inkscape:window-height="755"
     id="namedview5022"
     showgrid="false"
     fit-margin-top="0"
     fit-margin-left="0"
     fit-margin-right="0"
     fit-margin-bottom="0"
     inkscape:zoom="0.26757812"
     inkscape:cx="-535.99131"
     inkscape:cy="142.53465"
     inkscape:window-x="251"
     inkscape:window-y="42"
     inkscape:window-maximized="0"
     inkscape:current-layer="svg3613" />
  <metadata
     id="metadata3619">
    <rdf:RDF>
      <cc:Work
         rdf:about="">
        <dc:format>image/svg+xml</dc:format>
        <dc:type
           rdf:resource="http://purl.org/dc/dcmitype/StillImage" />
        <dc:title></dc:title>
      </cc:Work>
    </rdf:RDF>
  </metadata>
  <defs
     id="defs3617" />
  <g
     transform="translate(-154.01314,-252)"
     id="g3652">
    <path
       id="path3658"
       d="m 255.54587,476.75 c -0.78197,-1.7875 -5.9569,-13.29381 -11.49984,-25.56957 -5.54294,-12.27576 -9.77633,-22.80779 -9.40754,-23.40451 0.36879,-0.59671 0.2524,-0.82652 -0.25865,-0.51067 -0.51105,0.31584 -12.58043,-24.92713 -26.82086,-56.0955 -14.24043,-31.16836 -27.63317,-60.24013 -29.76165,-64.60392 -2.12848,-4.3638 -3.63377,-8.54967 -3.3451,-9.30194 0.28867,-0.75227 0.15742,-1.14067 -0.29168,-0.86311 C 173.47993,296.82142 165,279.40434 165,277.58576 165,277.26359 201.225,277 245.5,277 c 44.275,0 80.5,0.38707 80.5,0.86015 0,0.47309 -1.79623,4.74809 -3.99162,9.5 L 318.01676,296 l -60.94377,0 -60.94377,0 4.01882,8.75 c 3.79543,8.26361 8.67211,18.6108 16.44357,34.88947 1.87461,3.92671 3.40839,7.41754 3.40839,7.75739 0,0.55424 4.77221,10.87331 14.38411,31.10314 1.82927,3.85 5.52065,11.95 8.20306,18 2.68242,6.05 5.11437,11.225 5.40435,11.5 0.28997,0.275 1.57288,3.2 2.85091,6.5 1.27803,3.3 3.35695,8.25 4.61983,11 1.26288,2.75 2.63615,6.125 3.05172,7.5 0.41557,1.375 1.06752,2.725 1.44877,3 0.86427,0.62339 8.03725,17.34263 8.03725,18.73371 0,0.56007 2.475,6.20539 5.5,12.54516 3.025,6.33977 5.5,11.79557 5.5,12.12399 C 279,479.73129 274.04272,480 267.98382,480 l -11.01618,0 -1.42177,-3.25 z m 18.48118,-24.5 c -6.81795,-15.2625 -13.92391,-30.9 -15.79102,-34.75 -1.86711,-3.85 -13.29944,-29.05 -25.40517,-56 -12.10573,-26.95 -23.35305,-51.3625 -24.99403,-54.25 l -2.98361,-5.25 10.90889,0 10.90888,0 9.73124,22.25 c 5.35219,12.2375 10.68247,24.5 11.84508,27.25 1.1626,2.75 6.57977,14.225 12.03814,25.5 5.45837,11.275 11.48398,24.325 13.39024,29 7.86183,19.28072 12.73955,29.97777 13.3426,29.26087 0.35201,-0.41848 3.48222,-7.06087 6.95601,-14.76087 10.77128,-23.87562 16.15249,-35.62163 21.07404,-46 2.60817,-5.5 5.96934,-12.7 7.46927,-16 13.82977,-30.42693 20.43765,-44.56 25.01375,-53.5 2.95604,-5.775 7.1816,-14.325 9.39012,-19 2.20853,-4.675 4.47687,-9.175 5.04076,-10 0.56389,-0.825 3.34505,-6.5625 6.18036,-12.75 l 5.1551,-11.25 8.85115,0 8.85115,0 0,2.96607 c 0,3.33406 -0.63078,4.87827 -10.02167,24.53393 -3.67883,7.7 -8.18368,17.375 -10.01078,21.5 -6.46559,14.59727 -48.6917,105.28411 -55.17662,118.5 -2.42892,4.95 -9.77705,20.5875 -16.32917,34.75 -6.55213,14.1625 -12.16619,25.75 -12.47569,25.75 -0.30951,0 -6.14107,-12.4875 -12.95902,-27.75 z m 7.23283,-41 c -2.21661,-4.8125 -4.33197,-9.74601 -4.7008,-10.96336 -0.49194,-1.62368 1.58734,-6.81881 7.8046,-19.5 9.951,-20.29679 43.90203,-94.96831 49.34853,-108.53664 0.39907,-0.99416 -16.97355,-1.25 -84.87954,-1.25 l -85.3813,0 -4.71912,-9.5 -4.71911,-9.5 104.56082,0 104.56082,0 -0.65886,2.07587 c -0.36237,1.14173 -2.23861,5.52923 -4.16943,9.75 -1.93082,4.22077 -11.52586,25.67413 -21.32233,47.67413 -9.79646,22 -21.22554,47.346 -25.39795,56.32444 C 307.41379,376.80288 304,384.3788 304,384.65981 304,385.87362 286.59444,420 285.97536,420 c -0.37691,0 -2.49888,-3.9375 -4.71548,-8.75 z"
       style="fill:#3ce7fd"
       inkscape:connector-curvature="0" />
    <path
       id="path3656"
       d="m 274.02705,452.25 c -6.81795,-15.2625 -13.92391,-30.9 -15.79102,-34.75 -1.86711,-3.85 -13.29944,-29.05 -25.40517,-56 -12.10573,-26.95 -23.35305,-51.3625 -24.99403,-54.25 l -2.98361,-5.25 10.90889,0 10.90888,0 9.73124,22.25 c 5.35219,12.2375 10.68247,24.5 11.84508,27.25 1.1626,2.75 6.57977,14.225 12.03814,25.5 5.45837,11.275 11.48398,24.325 13.39024,29 7.86183,19.28072 12.73955,29.97777 13.3426,29.26087 0.35201,-0.41848 3.48222,-7.06087 6.95601,-14.76087 10.77128,-23.87562 16.15249,-35.62163 21.07404,-46 2.60817,-5.5 5.96934,-12.7 7.46927,-16 13.82977,-30.42693 20.43765,-44.56 25.01375,-53.5 2.95604,-5.775 7.1816,-14.325 9.39012,-19 2.20853,-4.675 4.47687,-9.175 5.04076,-10 0.56389,-0.825 3.34505,-6.5625 6.18036,-12.75 l 5.1551,-11.25 8.85115,0 8.85115,0 0,2.96607 c 0,3.33406 -0.63078,4.87827 -10.02167,24.53393 -3.67883,7.7 -8.18368,17.375 -10.01078,21.5 -6.46559,14.59727 -48.6917,105.28411 -55.17662,118.5 -2.42892,4.95 -9.77705,20.5875 -16.32917,34.75 -6.55213,14.1625 -12.16619,25.75 -12.47569,25.75 -0.30951,0 -6.14107,-12.4875 -12.95902,-27.75 z m 7.23283,-41 c -2.21661,-4.8125 -4.33197,-9.74601 -4.7008,-10.96336 -0.49194,-1.62368 1.58734,-6.81881 7.8046,-19.5 9.951,-20.29679 43.90203,-94.96831 49.34853,-108.53664 0.39907,-0.99416 -16.97355,-1.25 -84.87954,-1.25 l -85.3813,0 -4.71912,-9.5 -4.71911,-9.5 104.56082,0 104.56082,0 -0.65886,2.07587 c -0.36237,1.14173 -2.23861,5.52923 -4.16943,9.75 -1.93082,4.22077 -11.52586,25.67413 -21.32233,47.67413 -9.79646,22 -21.22554,47.346 -25.39795,56.32444 C 307.41379,376.80288 304,384.3788 304,384.65981 304,385.87362 286.59444,420 285.97536,420 c -0.37691,0 -2.49888,-3.9375 -4.71548,-8.75 z"
       style="fill:#fd8a06"
       inkscape:connector-curvature="0" />
    <path
       id="path3654"
       d="m 281.25988,411.25 c -2.21661,-4.8125 -4.33197,-9.74601 -4.7008,-10.96336 -0.49194,-1.62368 1.58734,-6.81881 7.8046,-19.5 9.951,-20.29679 43.90203,-94.96831 49.34853,-108.53664 0.39907,-0.99416 -16.97355,-1.25 -84.87954,-1.25 l -85.3813,0 -4.71912,-9.5 -4.71911,-9.5 104.56082,0 104.56082,0 -0.65886,2.07587 c -0.36237,1.14173 -2.23861,5.52923 -4.16943,9.75 -1.93082,4.22077 -11.52586,25.67413 -21.32233,47.67413 -9.79646,22 -21.22554,47.346 -25.39795,56.32444 C 307.41379,376.80288 304,384.3788 304,384.65981 304,385.87362 286.59444,420 285.97536,420 c -0.37691,0 -2.49888,-3.9375 -4.71548,-8.75 z"
       style="fill:#0803fe"
       inkscape:connector-curvature="0" />
  </g>
</svg>
