<?xml version="1.0" encoding="UTF-8" standalone="no"?>
<svg
   xmlns:dc="http://purl.org/dc/elements/1.1/"
   xmlns:cc="http://creativecommons.org/ns#"
   xmlns:rdf="http://www.w3.org/1999/02/22-rdf-syntax-ns#"
   xmlns:svg="http://www.w3.org/2000/svg"
   xmlns="http://www.w3.org/2000/svg"
   xmlns:sodipodi="http://sodipodi.sourceforge.net/DTD/sodipodi-0.dtd"
   xmlns:inkscape="http://www.inkscape.org/namespaces/inkscape"
   viewBox="0 0 1198.9521 359.60802"
   height="359.60803"
   width="1198.952"
   version="1.1"
   id="svg3749"
   inkscape:version="0.91 r13725"
   sodipodi:docname="apparent_v2.svg"
   inkscape:export-filename="/Users/Brad/Google Drive/Apparent/Logos and Icons/apparent.png"
   inkscape:export-xdpi="89.696701"
   inkscape:export-ydpi="89.696701">
  <sodipodi:namedview
     pagecolor="#ffffff"
     bordercolor="#666666"
     borderopacity="1"
     objecttolerance="10"
     gridtolerance="10"
     guidetolerance="10"
     inkscape:pageopacity="0"
     inkscape:pageshadow="2"
     inkscape:window-width="2002"
     inkscape:window-height="1058"
     id="namedview3904"
     showgrid="false"
     fit-margin-top="0"
     fit-margin-bottom="0"
     fit-margin-right="0"
     fit-margin-left="0"
     inkscape:zoom="1"
     inkscape:cx="697.38909"
     inkscape:cy="190.42514"
     inkscape:window-x="55"
     inkscape:window-y="0"
     inkscape:window-maximized="0"
     inkscape:current-layer="svg3749" />
  <metadata
     id="metadata3755">
    <rdf:RDF>
      <cc:Work
         rdf:about="">
        <dc:format>image/svg+xml</dc:format>
        <dc:type
           rdf:resource="http://purl.org/dc/dcmitype/StillImage" />
        <dc:title></dc:title>
      </cc:Work>
    </rdf:RDF>
  </metadata>
  <defs
     id="defs3753">
    <clipPath
       clipPathUnits="userSpaceOnUse"
       id="clipPath4202">
      <rect
         style="fill:#ffffff;fill-opacity:1;stroke:#ffffff"
         id="rect4204"
         width="1202.0815"
         height="361.63461"
         x="-2.1200528"
         y="-0.53904086" />
    </clipPath>
  </defs>
  <path
     sodipodi:nodetypes="ccccccc"
     inkscape:connector-curvature="0"
     style="fill:#3ce7fd"
     d="m 19.888997,38.666022 261.538993,0 -14.43299,29.999996 -199.286636,0 138.327626,290.942012 -33.52799,-2.5e-4 z"
     id="path3765" />
  <path
     sodipodi:nodetypes="cccccsscccccccccscscccsssssssssccccccscsssscssssssssccccccsssssssssssscccssssscssssccsssscscsscccssssccscsssccccscscsssccccccccssscccssssccccccsccccccccccccccccc"
     inkscape:connector-curvature="0"
     style="fill:#fd8a07"
     d="m 84.001,78.666258 33.64005,0 L 216.16047,289.35241 356.3625,3.3806e-4 c 28.98145,0 0,0 28.98145,0 L 411.17174,55.354798 c 14.20527,30.44495 29.35765,62.950972 33.67193,72.235602 l 7.84416,16.88115 -16.82014,0 -16.82013,0 -8.5927,-18.87735 -8.59268,-18.87733 -31.08811,0.42584 -31.08812,0.42586 -123.57808,252.03945 z m 302.93558,-5.25256 c -10.48426,-23.39473 -14.36117,-31.80611 -14.89762,-32.32214 -0.57105,-0.54929 -4.2443,6.669 -14.8499,29.18146 l -3.88386,8.24428 17.95926,0 17.95927,0 z m 72.44258,44.362082 0,-76.946622 14.84571,0 c 12.96384,0 14.94383,0.36099 15.61992,2.84782 0.72367,2.6619 1.3024,2.59637 8.8652,-1.0038 6.26936,-2.98447 10.5963,-3.83653 19.21877,-3.78462 15.37537,0.0926 25.8518,4.64201 36.06024,15.65922 25.29018,27.29383 16.75263,74.667142 -16.00436,88.805322 -11.43502,4.93544 -27.91101,4.68023 -39.01661,-0.60436 l -8.5706,-4.07831 0,28.02598 0,28.02599 -15.50913,0 -15.50914,0 z m 64.70245,0.58082 c 8.23485,-3.75879 13.6595,-13.57473 13.6595,-24.716902 0,-11.00888 -2.84997,-17.89691 -9.69852,-23.44 -4.35617,-3.52582 -6.82033,-4.24511 -14.54288,-4.24511 -16.79164,0 -25.82653,11.11523 -24.40462,30.02395 1.43236,19.047752 18.44417,29.928832 34.98652,22.378062 z m 62.63572,-0.58082 0,-76.946622 14.8457,0 c 12.96384,0 14.94384,0.36099 15.61992,2.84782 0.72367,2.6619 1.30241,2.59637 8.8652,-1.0038 6.26937,-2.98447 10.5963,-3.83653 19.21878,-3.78462 15.37536,0.0926 25.8518,4.64201 36.06024,15.65922 25.29018,27.29383 16.75263,74.667142 -16.00437,88.805322 -11.43501,4.93544 -27.911,4.68023 -39.01661,-0.60436 l -8.57059,-4.07831 0,28.02598 0,28.02599 -15.50914,0 -15.50913,0 z m 64.70245,0.58082 c 8.23484,-3.75879 13.6595,-13.57473 13.6595,-24.716902 0,-11.00888 -2.84998,-17.89691 -9.69852,-23.44 -4.35617,-3.52582 -6.82033,-4.24511 -14.54288,-4.24511 -16.79165,0 -25.82653,11.11523 -24.40462,30.02395 1.43236,19.047752 18.44416,29.928832 34.98652,22.378062 z m 98.11812,27.63717 c -23.95012,-5.77883 -39.07318,-25.99207 -39.32279,-52.558252 -0.2655,-28.25703 16.04934,-49.51462 41.38882,-53.92791 10.66214,-1.85699 22.51079,-0.11008 30.18099,4.44974 6.6018,3.92467 7.36744,3.92598 7.36744,0.0125 0,-2.90803 1.08837,-3.14068 14.69287,-3.14068 l 14.69286,0 0,51.8212 0,51.821202 -14.69286,0 c -13.48438,0 -14.69287,-0.25214 -14.69287,-3.06549 0,-2.92021 -0.37388,-2.87891 -7.88884,0.87144 -8.85281,4.41801 -22.29264,5.99232 -31.72562,3.71627 z m 25.68208,-27.3092 c 3.12054,-1.25417 7.47797,-5.02952 9.94689,-8.61815 8.62579,-12.537842 4.66638,-34.626302 -7.43992,-41.505182 -6.26156,-3.55787 -19.09919,-3.36326 -25.49203,0.38644 -11.2023,6.57068 -15.24313,24.8257 -8.38556,37.882902 6.54887,12.4694 18.55312,17.00544 31.37062,11.85399 z m 180.01804,27.31762 c -24.99481,-6.06514 -40.34127,-26.36104 -40.34127,-53.351842 0,-16.17713 5.58763,-30.43275 15.76586,-40.2232 17.85518,-17.17486 48.56592,-18.50973 69.66729,-3.02813 11.1441,8.17616 19.6883,31.54755 17.6778,48.35493 -0.501,4.188812 -0.8196,4.319162 -10.6115,4.342652 l -10.0949,0.0242 10.6115,5.71214 c 5.8363,3.14168 10.8622,5.90413 11.1687,6.1388 1.7124,1.31123 -2.6918,8.13537 -10.4578,16.20401 -5.6915,5.91326 -11.8035,10.41038 -17.16243,12.6279 -9.44476,3.90821 -26.93428,5.45255 -36.22325,3.19852 z m 22.23918,-27.24616 c 4.92709,-1.98023 15.74274,-12.60926 15.74274,-15.47109 0,-0.66691 -10.28501,-1.21255 -22.85557,-1.21255 -21.21635,0 -22.85557,0.21006 -22.85557,2.9289 0,4.18935 6.21752,11.21707 12.1056,13.68307 6.50868,2.72591 11.21175,2.74478 17.8628,0.0716 z m 7.58003,-44.057652 c 0,-4.2416 -8.97915,-8.74379 -17.43857,-8.74379 -8.31666,0 -13.94764,2.64459 -16.88959,7.93222 -1.63986,2.94737 -1.03867,3.06015 16.31279,3.06015 14.54454,0 18.01537,-0.43321 18.01537,-2.24858 z m -143.66357,17.95197 0,-51.82119 30.62258,-0.51548 c 0.34097,5.28988 0.50264,5.66781 3.99972,2.48691 1.09336,-0.99451 9.14265,-3.47319 9.14265,-3.47319 0,0 8.66893,-1.35116 15.50914,0.56248 15.41755,4.31323 15.56105,4.66788 7.85435,19.41173 l -6.67872,12.77722 -7.16534,-3.0488 c -5.79578,-2.46606 -8.11518,-2.7303 -12.13484,-1.38243 -8.9736,3.00897 -10.13127,8.09122 -10.13127,44.476732 l 0,32.34722 -15.50913,0 -15.50914,0 z m 195.90484,0 0,-51.82119 30.7191,0.15295 c -0.1089,4.21345 -0.3821,4.5469 0.2914,4.21345 10.026,-4.96431 15.1257,-6.41427 23.7915,-6.37774 12.4927,0.0526 23.2266,4.45249 29.1805,11.96104 7.969,10.05004 9.0723,16.98661 9.0723,57.039292 l 0,36.6534 -14.4823,0 -14.4823,0 -0.7202,-35.15814 c -0.8067,-39.382212 -1.5788,-42.345562 -11.3934,-43.731172 -8.6068,-1.21508 -15.7051,1.46291 -18.8708,7.1194 -2.3475,4.1945 -2.9176,10.57605 -3.4301,38.400202 l -0.6147,33.36971 -14.5305,0 -14.5305,0 z m 115.9104,14.237362 0,-37.583842 -14.6949,0.006 0,-28.48099 14.588,0 0.4616,-17.66632 0.4616,-17.66631 14.6928,0 14.6929,0 0.4616,17.66631 0.4616,17.66632 14.5859,0 0,28.2661 -14.6928,0 0,37.688142 0,37.68815 -15.5092,0 -15.5091,0 z"
     id="path3763" />
  <path
     sodipodi:nodetypes="ccccccc"
     inkscape:connector-curvature="0"
     style="fill:#0803fe"
     d="m 198.55995,231.13101 97.87601,-202.465002 -281.055583,0 L 0,0 345.94197,0 216.088,267.90802 Z"
     id="path3761" />
  <text
     xml:space="preserve"
     style="font-style:normal;font-variant:normal;font-weight:500;font-stretch:normal;font-size:112.37395477px;line-height:125%;font-family:Futura;-inkscape-font-specification:'Futura Medium';letter-spacing:0px;word-spacing:0px;fill:#0000ff;fill-opacity:1;stroke:none;stroke-width:1px;stroke-linecap:butt;stroke-linejoin:miter;stroke-opacity:1"
     x="-447.54712"
     y="1165.6929"
     id="text3906"
     sodipodi:linespacing="125%"
     inkscape:export-xdpi="89.89637"
     inkscape:export-ydpi="89.89637"
     transform="scale(0.99996911,1.0000309)"><tspan
       sodipodi:role="line"
       id="tspan3908"
       x="-447.54712"
       y="1165.6929" /></text>
  <text
     xml:space="preserve"
     style="font-style:normal;font-variant:normal;font-weight:500;font-stretch:normal;font-size:74.91595459px;line-height:125%;font-family:Futura;-inkscape-font-specification:'Futura Medium';letter-spacing:0px;word-spacing:0px;fill:#0000ff;fill-opacity:1;stroke:none;stroke-width:1px;stroke-linecap:butt;stroke-linejoin:miter;stroke-opacity:1"
     x="294.32764"
     y="339.60202"
     id="text3910"
     sodipodi:linespacing="125%"
     inkscape:export-xdpi="89.89637"
     inkscape:export-ydpi="89.89637"
     transform="scale(0.99996911,1.0000309)"><tspan
       sodipodi:role="line"
       id="tspan3912"
       x="294.32764"
       y="339.60202">Visibly better schools.</tspan></text>
  <text
     xml:space="preserve"
     style="font-style:normal;font-variant:normal;font-weight:500;font-stretch:normal;font-size:74.91595459px;line-height:125%;font-family:Futura;-inkscape-font-specification:'Futura Medium';letter-spacing:0px;word-spacing:0px;fill:#2ad4ff;fill-opacity:1;stroke:none;stroke-width:1px;stroke-linecap:butt;stroke-linejoin:miter;stroke-opacity:1"
     x="290.66974"
     y="265.29306"
     id="text3914"
     sodipodi:linespacing="125%"
     inkscape:export-xdpi="89.89637"
     inkscape:export-ydpi="89.89637"
     transform="scale(0.99996911,1.0000309)"><tspan
       sodipodi:role="line"
       id="tspan3916"
       x="290.66974"
       y="265.29306">Clearly connected parents.</tspan></text>
  <path
     style="fill:#ffffff;fill-opacity:1;stroke:#ffffff;stroke-width:0.33333334"
     d=""
     id="path3920"
     inkscape:connector-curvature="0" />
  <path
     style="fill:#ffffff;fill-opacity:1;stroke:#ffffff;stroke-width:0.33333334"
     d=""
     id="path3936"
     inkscape:connector-curvature="0" />
  <path
     style="fill:#ffffff;fill-opacity:1;stroke:#ffffff;stroke-width:0.33333334"
     d=""
     id="path3938"
     inkscape:connector-curvature="0" />
  <path
     style="fill:#ffffff;fill-opacity:1;stroke:#ffffff;stroke-width:0.33333334"
     d=""
     id="path3940"
     inkscape:connector-curvature="0" />
  <path
     style="fill:#ffffff;fill-opacity:1;stroke:#ffffff;stroke-width:0.2"
     d=""
     id="path3944"
     inkscape:connector-curvature="0" />
  <path
     style="fill:#ffffff;fill-opacity:1;stroke:#ffffff;stroke-width:0.2"
     d=""
     id="path3948"
     inkscape:connector-curvature="0" />
  <path
     style="fill:#ffffff;fill-opacity:1;stroke:#ffffff;stroke-width:0.2"
     d=""
     id="path3950"
     inkscape:connector-curvature="0" />
  <path
     style="fill:#ffffff;fill-opacity:1;stroke:#ffffff;stroke-width:0.2"
     d=""
     id="path3952"
     inkscape:connector-curvature="0" />
</svg>
